<mxfile host="Electron" agent="Mozilla/5.0 (Windows NT 10.0; Win64; x64) AppleWebKit/537.36 (KHTML, like Gecko) draw.io/28.1.2 Chrome/138.0.7204.243 Electron/37.4.0 Safari/537.36" version="28.1.2">
  <diagram name="PÃ¡gina-1" id="nSUWDhd3Jh8U2nydc0y9">
    <mxGraphModel dx="328" dy="-464" grid="1" gridSize="10" guides="1" tooltips="1" connect="1" arrows="1" fold="1" page="1" pageScale="1" pageWidth="827" pageHeight="1169" math="0" shadow="0">
      <root>
        <mxCell id="0" />
        <mxCell id="1" parent="0" />
        <mxCell id="Jm0r5_DeOLN-2_xh7fez-162" value="" style="html=1;points=[[0,0,0,0,5],[0,1,0,0,-5],[1,0,0,0,5],[1,1,0,0,-5]];perimeter=orthogonalPerimeter;outlineConnect=0;targetShapes=umlLifeline;portConstraint=eastwest;newEdgeStyle={&quot;curved&quot;:0,&quot;rounded&quot;:0};" vertex="1" parent="1">
          <mxGeometry x="1332.26" y="6190" width="10" height="40" as="geometry" />
        </mxCell>
        <mxCell id="Jm0r5_DeOLN-2_xh7fez-174" value="" style="html=1;points=[[0,0,0,0,5],[0,1,0,0,-5],[1,0,0,0,5],[1,1,0,0,-5]];perimeter=orthogonalPerimeter;outlineConnect=0;targetShapes=umlLifeline;portConstraint=eastwest;newEdgeStyle={&quot;curved&quot;:0,&quot;rounded&quot;:0};" vertex="1" parent="1">
          <mxGeometry x="1332" y="6270" width="10" height="30" as="geometry" />
        </mxCell>
        <mxCell id="Jm0r5_DeOLN-2_xh7fez-177" value="" style="html=1;points=[[0,0,0,0,5],[0,1,0,0,-5],[1,0,0,0,5],[1,1,0,0,-5]];perimeter=orthogonalPerimeter;outlineConnect=0;targetShapes=umlLifeline;portConstraint=eastwest;newEdgeStyle={&quot;curved&quot;:0,&quot;rounded&quot;:0};" vertex="1" parent="1">
          <mxGeometry x="1332" y="6260" width="10" height="93.5" as="geometry" />
        </mxCell>
        <mxCell id="Jm0r5_DeOLN-2_xh7fez-186" value="" style="html=1;points=[[0,0,0,0,5],[0,1,0,0,-5],[1,0,0,0,5],[1,1,0,0,-5]];perimeter=orthogonalPerimeter;outlineConnect=0;targetShapes=umlLifeline;portConstraint=eastwest;newEdgeStyle={&quot;curved&quot;:0,&quot;rounded&quot;:0};" vertex="1" parent="1">
          <mxGeometry x="1332" y="6420" width="10" height="30" as="geometry" />
        </mxCell>
        <mxCell id="Jm0r5_DeOLN-2_xh7fez-188" value="" style="html=1;points=[[0,0,0,0,5],[0,1,0,0,-5],[1,0,0,0,5],[1,1,0,0,-5]];perimeter=orthogonalPerimeter;outlineConnect=0;targetShapes=umlLifeline;portConstraint=eastwest;newEdgeStyle={&quot;curved&quot;:0,&quot;rounded&quot;:0};" vertex="1" parent="1">
          <mxGeometry x="1097.26" y="6440" width="10" height="40" as="geometry" />
        </mxCell>
        <mxCell id="Jm0r5_DeOLN-2_xh7fez-172" value="" style="html=1;points=[[0,0,0,0,5],[0,1,0,0,-5],[1,0,0,0,5],[1,1,0,0,-5]];perimeter=orthogonalPerimeter;outlineConnect=0;targetShapes=umlLifeline;portConstraint=eastwest;newEdgeStyle={&quot;curved&quot;:0,&quot;rounded&quot;:0};" vertex="1" parent="1">
          <mxGeometry x="1098" y="6250" width="10" height="100" as="geometry" />
        </mxCell>
        <mxCell id="R3Ze9OEiheNbRMXw7LAC-172" value="" style="html=1;points=[[0,0,0,0,5],[0,1,0,0,-5],[1,0,0,0,5],[1,1,0,0,-5]];perimeter=orthogonalPerimeter;outlineConnect=0;targetShapes=umlLifeline;portConstraint=eastwest;newEdgeStyle={&quot;curved&quot;:0,&quot;rounded&quot;:0};" parent="1" vertex="1">
          <mxGeometry x="1226" y="2682" width="10" height="28" as="geometry" />
        </mxCell>
        <mxCell id="R3Ze9OEiheNbRMXw7LAC-193" value="" style="html=1;points=[[0,0,0,0,5],[0,1,0,0,-5],[1,0,0,0,5],[1,1,0,0,-5]];perimeter=orthogonalPerimeter;outlineConnect=0;targetShapes=umlLifeline;portConstraint=eastwest;newEdgeStyle={&quot;curved&quot;:0,&quot;rounded&quot;:0};" parent="1" vertex="1">
          <mxGeometry x="1225" y="2900" width="10" height="20" as="geometry" />
        </mxCell>
        <mxCell id="R3Ze9OEiheNbRMXw7LAC-201" value="" style="html=1;points=[[0,0,0,0,5],[0,1,0,0,-5],[1,0,0,0,5],[1,1,0,0,-5]];perimeter=orthogonalPerimeter;outlineConnect=0;targetShapes=umlLifeline;portConstraint=eastwest;newEdgeStyle={&quot;curved&quot;:0,&quot;rounded&quot;:0};" parent="1" vertex="1">
          <mxGeometry x="1225" y="2940" width="10" height="20" as="geometry" />
        </mxCell>
        <mxCell id="R3Ze9OEiheNbRMXw7LAC-167" value="" style="html=1;points=[[0,0,0,0,5],[0,1,0,0,-5],[1,0,0,0,5],[1,1,0,0,-5]];perimeter=orthogonalPerimeter;outlineConnect=0;targetShapes=umlLifeline;portConstraint=eastwest;newEdgeStyle={&quot;curved&quot;:0,&quot;rounded&quot;:0};" parent="1" vertex="1">
          <mxGeometry x="1065" y="2640" width="10" height="30" as="geometry" />
        </mxCell>
        <mxCell id="R3Ze9OEiheNbRMXw7LAC-194" value="" style="html=1;points=[[0,0,0,0,5],[0,1,0,0,-5],[1,0,0,0,5],[1,1,0,0,-5]];perimeter=orthogonalPerimeter;outlineConnect=0;targetShapes=umlLifeline;portConstraint=eastwest;newEdgeStyle={&quot;curved&quot;:0,&quot;rounded&quot;:0};" parent="1" vertex="1">
          <mxGeometry x="1065" y="2911" width="10" height="29" as="geometry" />
        </mxCell>
        <mxCell id="R3Ze9OEiheNbRMXw7LAC-198" value="" style="html=1;points=[[0,0,0,0,5],[0,1,0,0,-5],[1,0,0,0,5],[1,1,0,0,-5]];perimeter=orthogonalPerimeter;outlineConnect=0;targetShapes=umlLifeline;portConstraint=eastwest;newEdgeStyle={&quot;curved&quot;:0,&quot;rounded&quot;:0};" parent="1" vertex="1">
          <mxGeometry x="1065" y="2940" width="10" height="60" as="geometry" />
        </mxCell>
        <mxCell id="R3Ze9OEiheNbRMXw7LAC-207" value="" style="html=1;points=[[0,0,0,0,5],[0,1,0,0,-5],[1,0,0,0,5],[1,1,0,0,-5]];perimeter=orthogonalPerimeter;outlineConnect=0;targetShapes=umlLifeline;portConstraint=eastwest;newEdgeStyle={&quot;curved&quot;:0,&quot;rounded&quot;:0};" parent="1" vertex="1">
          <mxGeometry x="1065" y="3060" width="10" height="30" as="geometry" />
        </mxCell>
        <mxCell id="R3Ze9OEiheNbRMXw7LAC-120" value="" style="rounded=0;whiteSpace=wrap;html=1;labelBackgroundColor=none;" parent="1" vertex="1">
          <mxGeometry x="845" y="2393" width="800" height="747" as="geometry" />
        </mxCell>
        <mxCell id="aPycU-Eq9o8mFGcGbb0F-111" value="" style="html=1;points=[[0,0,0,0,5],[0,1,0,0,-5],[1,0,0,0,5],[1,1,0,0,-5]];perimeter=orthogonalPerimeter;outlineConnect=0;targetShapes=umlLifeline;portConstraint=eastwest;newEdgeStyle={&quot;curved&quot;:0,&quot;rounded&quot;:0};labelBackgroundColor=none;" parent="1" vertex="1">
          <mxGeometry x="1596" y="1626" width="10" height="34" as="geometry" />
        </mxCell>
        <mxCell id="aPycU-Eq9o8mFGcGbb0F-105" value="" style="html=1;points=[[0,0,0,0,5],[0,1,0,0,-5],[1,0,0,0,5],[1,1,0,0,-5]];perimeter=orthogonalPerimeter;outlineConnect=0;targetShapes=umlLifeline;portConstraint=eastwest;newEdgeStyle={&quot;curved&quot;:0,&quot;rounded&quot;:0};labelBackgroundColor=none;" parent="1" vertex="1">
          <mxGeometry x="1596" y="1600" width="10" height="30" as="geometry" />
        </mxCell>
        <mxCell id="aPycU-Eq9o8mFGcGbb0F-99" value="" style="html=1;points=[[0,0,0,0,5],[0,1,0,0,-5],[1,0,0,0,5],[1,1,0,0,-5]];perimeter=orthogonalPerimeter;outlineConnect=0;targetShapes=umlLifeline;portConstraint=eastwest;newEdgeStyle={&quot;curved&quot;:0,&quot;rounded&quot;:0};labelBackgroundColor=none;" parent="1" vertex="1">
          <mxGeometry x="1135" y="1570" width="10" height="30" as="geometry" />
        </mxCell>
        <mxCell id="aPycU-Eq9o8mFGcGbb0F-7" value="" style="rounded=0;whiteSpace=wrap;html=1;labelBackgroundColor=none;" parent="1" vertex="1">
          <mxGeometry x="831" y="1230" width="810" height="590" as="geometry" />
        </mxCell>
        <mxCell id="aPycU-Eq9o8mFGcGbb0F-8" value="Usuario" style="shape=umlLifeline;perimeter=lifelinePerimeter;whiteSpace=wrap;html=1;container=1;dropTarget=0;collapsible=0;recursiveResize=0;outlineConnect=0;portConstraint=eastwest;newEdgeStyle={&quot;curved&quot;:0,&quot;rounded&quot;:0};participant=umlActor;size=70;labelBackgroundColor=none;" parent="1" vertex="1">
          <mxGeometry x="851" y="1250" width="50" height="570" as="geometry" />
        </mxCell>
        <mxCell id="aPycU-Eq9o8mFGcGbb0F-88" value="" style="html=1;points=[[0,0,0,0,5],[0,1,0,0,-5],[1,0,0,0,5],[1,1,0,0,-5]];perimeter=orthogonalPerimeter;outlineConnect=0;targetShapes=umlLifeline;portConstraint=eastwest;newEdgeStyle={&quot;curved&quot;:0,&quot;rounded&quot;:0};labelBackgroundColor=none;" parent="aPycU-Eq9o8mFGcGbb0F-8" vertex="1">
          <mxGeometry x="20" y="70" width="10" height="80" as="geometry" />
        </mxCell>
        <mxCell id="aPycU-Eq9o8mFGcGbb0F-107" value="" style="html=1;points=[[0,0,0,0,5],[0,1,0,0,-5],[1,0,0,0,5],[1,1,0,0,-5]];perimeter=orthogonalPerimeter;outlineConnect=0;targetShapes=umlLifeline;portConstraint=eastwest;newEdgeStyle={&quot;curved&quot;:0,&quot;rounded&quot;:0};labelBackgroundColor=none;" parent="aPycU-Eq9o8mFGcGbb0F-8" vertex="1">
          <mxGeometry x="20" y="350" width="10" height="60" as="geometry" />
        </mxCell>
        <mxCell id="R3Ze9OEiheNbRMXw7LAC-75" value="" style="html=1;points=[[0,0,0,0,5],[0,1,0,0,-5],[1,0,0,0,5],[1,1,0,0,-5]];perimeter=orthogonalPerimeter;outlineConnect=0;targetShapes=umlLifeline;portConstraint=eastwest;newEdgeStyle={&quot;curved&quot;:0,&quot;rounded&quot;:0};" parent="aPycU-Eq9o8mFGcGbb0F-8" vertex="1">
          <mxGeometry x="20" y="70" width="10" height="450" as="geometry" />
        </mxCell>
        <mxCell id="aPycU-Eq9o8mFGcGbb0F-9" value="REGISTRARSE" style="rounded=0;whiteSpace=wrap;html=1;labelBackgroundColor=none;" parent="1" vertex="1">
          <mxGeometry x="1085" y="1180" width="320" height="60" as="geometry" />
        </mxCell>
        <mxCell id="aPycU-Eq9o8mFGcGbb0F-16" value=":UI" style="shape=umlLifeline;perimeter=lifelinePerimeter;whiteSpace=wrap;html=1;container=1;dropTarget=0;collapsible=0;recursiveResize=0;outlineConnect=0;portConstraint=eastwest;newEdgeStyle={&quot;curved&quot;:0,&quot;rounded&quot;:0};participant=umlBoundary;size=60;align=center;labelBackgroundColor=none;" parent="1" vertex="1">
          <mxGeometry x="1020" y="1250" width="80" height="570" as="geometry" />
        </mxCell>
        <mxCell id="R3Ze9OEiheNbRMXw7LAC-128" value="" style="html=1;points=[[0,0,0,0,5],[0,1,0,0,-5],[1,0,0,0,5],[1,1,0,0,-5]];perimeter=orthogonalPerimeter;outlineConnect=0;targetShapes=umlLifeline;portConstraint=eastwest;newEdgeStyle={&quot;curved&quot;:0,&quot;rounded&quot;:0};" parent="aPycU-Eq9o8mFGcGbb0F-16" vertex="1">
          <mxGeometry x="35" y="200" width="10" height="80" as="geometry" />
        </mxCell>
        <mxCell id="R3Ze9OEiheNbRMXw7LAC-130" value="" style="html=1;points=[[0,0,0,0,5],[0,1,0,0,-5],[1,0,0,0,5],[1,1,0,0,-5]];perimeter=orthogonalPerimeter;outlineConnect=0;targetShapes=umlLifeline;portConstraint=eastwest;newEdgeStyle={&quot;curved&quot;:0,&quot;rounded&quot;:0};" parent="aPycU-Eq9o8mFGcGbb0F-16" vertex="1">
          <mxGeometry x="35" y="500" width="10" height="60" as="geometry" />
        </mxCell>
        <mxCell id="aPycU-Eq9o8mFGcGbb0F-89" value="" style="html=1;points=[[0,0,0,0,5],[0,1,0,0,-5],[1,0,0,0,5],[1,1,0,0,-5]];perimeter=orthogonalPerimeter;outlineConnect=0;targetShapes=umlLifeline;portConstraint=eastwest;newEdgeStyle={&quot;curved&quot;:0,&quot;rounded&quot;:0};labelBackgroundColor=none;" parent="aPycU-Eq9o8mFGcGbb0F-16" vertex="1">
          <mxGeometry x="35" y="70" width="10" height="30" as="geometry" />
        </mxCell>
        <mxCell id="R3Ze9OEiheNbRMXw7LAC-76" value="" style="html=1;points=[[0,0,0,0,5],[0,1,0,0,-5],[1,0,0,0,5],[1,1,0,0,-5]];perimeter=orthogonalPerimeter;outlineConnect=0;targetShapes=umlLifeline;portConstraint=eastwest;newEdgeStyle={&quot;curved&quot;:0,&quot;rounded&quot;:0};" parent="aPycU-Eq9o8mFGcGbb0F-16" vertex="1">
          <mxGeometry x="35" y="70" width="10" height="500" as="geometry" />
        </mxCell>
        <mxCell id="aPycU-Eq9o8mFGcGbb0F-18" value="BD:LinuxLearn" style="shape=umlLifeline;perimeter=lifelinePerimeter;whiteSpace=wrap;html=1;container=1;dropTarget=0;collapsible=0;recursiveResize=0;outlineConnect=0;portConstraint=eastwest;newEdgeStyle={&quot;curved&quot;:0,&quot;rounded&quot;:0};participant=umlEntity;size=60;labelBackgroundColor=none;" parent="1" vertex="1">
          <mxGeometry x="1551" y="1230" width="80" height="590" as="geometry" />
        </mxCell>
        <mxCell id="aPycU-Eq9o8mFGcGbb0F-93" value="" style="html=1;points=[[0,0,0,0,5],[0,1,0,0,-5],[1,0,0,0,5],[1,1,0,0,-5]];perimeter=orthogonalPerimeter;outlineConnect=0;targetShapes=umlLifeline;portConstraint=eastwest;newEdgeStyle={&quot;curved&quot;:0,&quot;rounded&quot;:0};labelBackgroundColor=none;" parent="aPycU-Eq9o8mFGcGbb0F-18" vertex="1">
          <mxGeometry x="35" y="140" width="10" height="60" as="geometry" />
        </mxCell>
        <mxCell id="aPycU-Eq9o8mFGcGbb0F-121" value="" style="html=1;points=[[0,0,0,0,5],[0,1,0,0,-5],[1,0,0,0,5],[1,1,0,0,-5]];perimeter=orthogonalPerimeter;outlineConnect=0;targetShapes=umlLifeline;portConstraint=eastwest;newEdgeStyle={&quot;curved&quot;:0,&quot;rounded&quot;:0};labelBackgroundColor=none;" parent="aPycU-Eq9o8mFGcGbb0F-18" vertex="1">
          <mxGeometry x="35" y="470" width="10" height="40" as="geometry" />
        </mxCell>
        <mxCell id="R3Ze9OEiheNbRMXw7LAC-79" value="" style="html=1;points=[[0,0,0,0,5],[0,1,0,0,-5],[1,0,0,0,5],[1,1,0,0,-5]];perimeter=orthogonalPerimeter;outlineConnect=0;targetShapes=umlLifeline;portConstraint=eastwest;newEdgeStyle={&quot;curved&quot;:0,&quot;rounded&quot;:0};" parent="aPycU-Eq9o8mFGcGbb0F-18" vertex="1">
          <mxGeometry x="35" y="270" width="10" height="40" as="geometry" />
        </mxCell>
        <mxCell id="aPycU-Eq9o8mFGcGbb0F-19" value=":AppServer" style="shape=umlLifeline;perimeter=lifelinePerimeter;whiteSpace=wrap;html=1;container=1;dropTarget=0;collapsible=0;recursiveResize=0;outlineConnect=0;portConstraint=eastwest;newEdgeStyle={&quot;curved&quot;:0,&quot;rounded&quot;:0};labelBackgroundColor=none;" parent="1" vertex="1">
          <mxGeometry x="1195" y="1250" width="100" height="570" as="geometry" />
        </mxCell>
        <mxCell id="aPycU-Eq9o8mFGcGbb0F-136" value="" style="html=1;points=[[0,0,0,0,5],[0,1,0,0,-5],[1,0,0,0,5],[1,1,0,0,-5]];perimeter=orthogonalPerimeter;outlineConnect=0;targetShapes=umlLifeline;portConstraint=eastwest;newEdgeStyle={&quot;curved&quot;:0,&quot;rounded&quot;:0};labelBackgroundColor=none;" parent="aPycU-Eq9o8mFGcGbb0F-19" vertex="1">
          <mxGeometry x="44" y="550" width="10" height="10" as="geometry" />
        </mxCell>
        <mxCell id="aPycU-Eq9o8mFGcGbb0F-129" value="" style="html=1;points=[[0,0,0,0,5],[0,1,0,0,-5],[1,0,0,0,5],[1,1,0,0,-5]];perimeter=orthogonalPerimeter;outlineConnect=0;targetShapes=umlLifeline;portConstraint=eastwest;newEdgeStyle={&quot;curved&quot;:0,&quot;rounded&quot;:0};labelBackgroundColor=none;" parent="aPycU-Eq9o8mFGcGbb0F-19" vertex="1">
          <mxGeometry x="44" y="480" width="10" height="30" as="geometry" />
        </mxCell>
        <mxCell id="aPycU-Eq9o8mFGcGbb0F-112" value="" style="html=1;points=[[0,0,0,0,5],[0,1,0,0,-5],[1,0,0,0,5],[1,1,0,0,-5]];perimeter=orthogonalPerimeter;outlineConnect=0;targetShapes=umlLifeline;portConstraint=eastwest;newEdgeStyle={&quot;curved&quot;:0,&quot;rounded&quot;:0};labelBackgroundColor=none;" parent="aPycU-Eq9o8mFGcGbb0F-19" vertex="1">
          <mxGeometry x="48" y="310" width="6" height="25" as="geometry" />
        </mxCell>
        <mxCell id="aPycU-Eq9o8mFGcGbb0F-106" value="" style="html=1;points=[[0,0,0,0,5],[0,1,0,0,-5],[1,0,0,0,5],[1,1,0,0,-5]];perimeter=orthogonalPerimeter;outlineConnect=0;targetShapes=umlLifeline;portConstraint=eastwest;newEdgeStyle={&quot;curved&quot;:0,&quot;rounded&quot;:0};labelBackgroundColor=none;" parent="aPycU-Eq9o8mFGcGbb0F-19" vertex="1">
          <mxGeometry x="44" y="250" width="10" height="40" as="geometry" />
        </mxCell>
        <mxCell id="aPycU-Eq9o8mFGcGbb0F-91" value="" style="html=1;points=[[0,0,0,0,5],[0,1,0,0,-5],[1,0,0,0,5],[1,1,0,0,-5]];perimeter=orthogonalPerimeter;outlineConnect=0;targetShapes=umlLifeline;portConstraint=eastwest;newEdgeStyle={&quot;curved&quot;:0,&quot;rounded&quot;:0};labelBackgroundColor=none;" parent="aPycU-Eq9o8mFGcGbb0F-19" vertex="1">
          <mxGeometry x="44" y="90" width="10" height="40" as="geometry" />
        </mxCell>
        <mxCell id="aPycU-Eq9o8mFGcGbb0F-96" value="" style="html=1;points=[[0,0,0,0,5],[0,1,0,0,-5],[1,0,0,0,5],[1,1,0,0,-5]];perimeter=orthogonalPerimeter;outlineConnect=0;targetShapes=umlLifeline;portConstraint=eastwest;newEdgeStyle={&quot;curved&quot;:0,&quot;rounded&quot;:0};labelBackgroundColor=none;" parent="aPycU-Eq9o8mFGcGbb0F-19" vertex="1">
          <mxGeometry x="44" y="170" width="10" height="40" as="geometry" />
        </mxCell>
        <mxCell id="aPycU-Eq9o8mFGcGbb0F-126" value="" style="html=1;points=[[0,0,0,0,5],[0,1,0,0,-5],[1,0,0,0,5],[1,1,0,0,-5]];perimeter=orthogonalPerimeter;outlineConnect=0;targetShapes=umlLifeline;portConstraint=eastwest;newEdgeStyle={&quot;curved&quot;:0,&quot;rounded&quot;:0};labelBackgroundColor=none;" parent="aPycU-Eq9o8mFGcGbb0F-19" vertex="1">
          <mxGeometry x="44" y="430" width="10" height="30" as="geometry" />
        </mxCell>
        <mxCell id="R3Ze9OEiheNbRMXw7LAC-77" value="" style="html=1;points=[[0,0,0,0,5],[0,1,0,0,-5],[1,0,0,0,5],[1,1,0,0,-5]];perimeter=orthogonalPerimeter;outlineConnect=0;targetShapes=umlLifeline;portConstraint=eastwest;newEdgeStyle={&quot;curved&quot;:0,&quot;rounded&quot;:0};" parent="aPycU-Eq9o8mFGcGbb0F-19" vertex="1">
          <mxGeometry x="44" y="90" width="10" height="470" as="geometry" />
        </mxCell>
        <mxCell id="aPycU-Eq9o8mFGcGbb0F-20" value=":CorreoService&lt;span style=&quot;color: rgba(0, 0, 0, 0); font-family: monospace; font-size: 0px; text-align: start; text-wrap-mode: nowrap;&quot;&gt;%3CmxGraphModel%3E%3Croot%3E%3CmxCell%20id%3D%220%22%2F%3E%3CmxCell%20id%3D%221%22%20parent%3D%220%22%2F%3E%3CmxCell%20id%3D%222%22%20value%3D%22%3AObject%22%20style%3D%22shape%3DumlLifeline%3Bperimeter%3DlifelinePerimeter%3BwhiteSpace%3Dwrap%3Bhtml%3D1%3Bcontainer%3D1%3BdropTarget%3D0%3Bcollapsible%3D0%3BrecursiveResize%3D0%3BoutlineConnect%3D0%3BportConstraint%3Deastwest%3BnewEdgeStyle%3D%7B%26quot%3Bcurved%26quot%3B%3A0%2C%26quot%3Brounded%26quot%3B%3A0%7D%3B%22%20vertex%3D%221%22%20parent%3D%221%22%3E%3CmxGeometry%20x%3D%22254%22%20y%3D%22140%22%20width%3D%22100%22%20height%3D%22300%22%20as%3D%22geometry%22%2F%3E%3C%2FmxCell%3E%3C%2Froot%3E%3C%2FmxGraphModel%3E&lt;/span&gt;" style="shape=umlLifeline;perimeter=lifelinePerimeter;whiteSpace=wrap;html=1;container=1;dropTarget=0;collapsible=0;recursiveResize=0;outlineConnect=0;portConstraint=eastwest;newEdgeStyle={&quot;curved&quot;:0,&quot;rounded&quot;:0};size=40;labelBackgroundColor=none;" parent="1" vertex="1">
          <mxGeometry x="1380" y="1250" width="100" height="570" as="geometry" />
        </mxCell>
        <mxCell id="aPycU-Eq9o8mFGcGbb0F-114" value="" style="html=1;points=[[0,0,0,0,5],[0,1,0,0,-5],[1,0,0,0,5],[1,1,0,0,-5]];perimeter=orthogonalPerimeter;outlineConnect=0;targetShapes=umlLifeline;portConstraint=eastwest;newEdgeStyle={&quot;curved&quot;:0,&quot;rounded&quot;:0};labelBackgroundColor=none;" parent="aPycU-Eq9o8mFGcGbb0F-20" vertex="1">
          <mxGeometry x="45" y="310" width="10" height="47.5" as="geometry" />
        </mxCell>
        <mxCell id="aPycU-Eq9o8mFGcGbb0F-118" value="" style="html=1;points=[[0,0,0,0,5],[0,1,0,0,-5],[1,0,0,0,5],[1,1,0,0,-5]];perimeter=orthogonalPerimeter;outlineConnect=0;targetShapes=umlLifeline;portConstraint=eastwest;newEdgeStyle={&quot;curved&quot;:0,&quot;rounded&quot;:0};labelBackgroundColor=none;" parent="aPycU-Eq9o8mFGcGbb0F-20" vertex="1">
          <mxGeometry x="45" y="400" width="10" height="40" as="geometry" />
        </mxCell>
        <mxCell id="aPycU-Eq9o8mFGcGbb0F-90" value="&lt;font style=&quot;font-size: 9px;&quot;&gt;Llena datos del formulario&lt;/font&gt;" style="html=1;verticalAlign=bottom;endArrow=block;curved=0;rounded=0;exitX=1;exitY=0;exitDx=0;exitDy=5;exitPerimeter=0;entryX=0;entryY=0;entryDx=0;entryDy=5;entryPerimeter=0;labelBackgroundColor=none;fontColor=default;" parent="1" source="aPycU-Eq9o8mFGcGbb0F-88" target="aPycU-Eq9o8mFGcGbb0F-89" edge="1">
          <mxGeometry width="80" relative="1" as="geometry">
            <mxPoint x="1101" y="1490" as="sourcePoint" />
            <mxPoint x="1181" y="1490" as="targetPoint" />
          </mxGeometry>
        </mxCell>
        <mxCell id="aPycU-Eq9o8mFGcGbb0F-92" value="&lt;font style=&quot;font-size: 9px;&quot;&gt;Enviar datos de registro&lt;/font&gt;" style="html=1;verticalAlign=bottom;endArrow=block;curved=0;rounded=0;entryX=0;entryY=0;entryDx=0;entryDy=5;entryPerimeter=0;exitX=1;exitY=1;exitDx=0;exitDy=-5;exitPerimeter=0;labelBackgroundColor=none;fontColor=default;" parent="1" source="aPycU-Eq9o8mFGcGbb0F-89" target="aPycU-Eq9o8mFGcGbb0F-91" edge="1">
          <mxGeometry width="80" relative="1" as="geometry">
            <mxPoint x="1101" y="1490" as="sourcePoint" />
            <mxPoint x="1181" y="1490" as="targetPoint" />
          </mxGeometry>
        </mxCell>
        <mxCell id="aPycU-Eq9o8mFGcGbb0F-94" value="Verificar si email ya existe" style="html=1;verticalAlign=bottom;endArrow=block;curved=0;rounded=0;exitX=1;exitY=1;exitDx=0;exitDy=-5;exitPerimeter=0;entryX=0;entryY=0;entryDx=0;entryDy=5;entryPerimeter=0;fontSize=9;labelBackgroundColor=none;fontColor=default;" parent="1" source="aPycU-Eq9o8mFGcGbb0F-91" target="aPycU-Eq9o8mFGcGbb0F-93" edge="1">
          <mxGeometry width="80" relative="1" as="geometry">
            <mxPoint x="1331" y="1510" as="sourcePoint" />
            <mxPoint x="1411" y="1510" as="targetPoint" />
          </mxGeometry>
        </mxCell>
        <mxCell id="aPycU-Eq9o8mFGcGbb0F-95" value="alt" style="shape=umlFrame;whiteSpace=wrap;html=1;pointerEvents=0;labelBackgroundColor=none;" parent="1" vertex="1">
          <mxGeometry x="845" y="1400" width="790" height="233" as="geometry" />
        </mxCell>
        <mxCell id="aPycU-Eq9o8mFGcGbb0F-97" value="[Email existe]" style="text;align=center;fontStyle=1;verticalAlign=middle;spacingLeft=3;spacingRight=3;rotatable=0;points=[[0,0.5],[1,0.5]];portConstraint=eastwest;html=1;fontSize=10;labelBackgroundColor=none;" parent="1" vertex="1">
          <mxGeometry x="911" y="1400" width="80" height="26" as="geometry" />
        </mxCell>
        <mxCell id="aPycU-Eq9o8mFGcGbb0F-98" value="Error &quot;Email ya existe&quot;" style="html=1;verticalAlign=bottom;endArrow=open;dashed=1;endSize=8;curved=0;rounded=0;exitX=0;exitY=1;exitDx=0;exitDy=-5;exitPerimeter=0;entryX=1;entryY=0;entryDx=0;entryDy=5;entryPerimeter=0;fontSize=9;labelBackgroundColor=none;fontColor=default;" parent="1" source="aPycU-Eq9o8mFGcGbb0F-93" target="aPycU-Eq9o8mFGcGbb0F-96" edge="1">
          <mxGeometry relative="1" as="geometry">
            <mxPoint x="1291" y="1540" as="sourcePoint" />
            <mxPoint x="1211" y="1540" as="targetPoint" />
          </mxGeometry>
        </mxCell>
        <mxCell id="aPycU-Eq9o8mFGcGbb0F-100" value="Mostrar mensaje de error" style="html=1;verticalAlign=bottom;endArrow=open;dashed=1;endSize=8;curved=0;rounded=0;exitX=0;exitY=1;exitDx=0;exitDy=-5;exitPerimeter=0;fontSize=9;labelBackgroundColor=none;fontColor=default;" parent="1" source="aPycU-Eq9o8mFGcGbb0F-96" target="R3Ze9OEiheNbRMXw7LAC-128" edge="1">
          <mxGeometry relative="1" as="geometry">
            <mxPoint x="1281" y="1510" as="sourcePoint" />
            <mxPoint x="1145" y="1575" as="targetPoint" />
          </mxGeometry>
        </mxCell>
        <mxCell id="aPycU-Eq9o8mFGcGbb0F-101" value="" style="endArrow=none;dashed=1;html=1;rounded=0;exitX=-0.001;exitY=0.344;exitDx=0;exitDy=0;exitPerimeter=0;entryX=0.996;entryY=0.338;entryDx=0;entryDy=0;entryPerimeter=0;labelBackgroundColor=none;fontColor=default;" parent="1" edge="1">
          <mxGeometry width="50" height="50" relative="1" as="geometry">
            <mxPoint x="845" y="1481.2" as="sourcePoint" />
            <mxPoint x="1632.6299999999999" y="1480" as="targetPoint" />
            <Array as="points">
              <mxPoint x="1140.79" y="1480.4" />
            </Array>
          </mxGeometry>
        </mxCell>
        <mxCell id="aPycU-Eq9o8mFGcGbb0F-104" value="[Email no existe]" style="text;align=center;fontStyle=1;verticalAlign=middle;spacingLeft=3;spacingRight=3;rotatable=0;points=[[0,0.5],[1,0.5]];portConstraint=eastwest;html=1;fontSize=10;labelBackgroundColor=none;" parent="1" vertex="1">
          <mxGeometry x="920" y="1490" width="80" height="26" as="geometry" />
        </mxCell>
        <mxCell id="aPycU-Eq9o8mFGcGbb0F-109" value="ok" style="html=1;verticalAlign=bottom;endArrow=open;dashed=1;endSize=8;curved=0;rounded=0;exitX=0;exitY=0;exitDx=0;exitDy=5;exitPerimeter=0;entryX=1;entryY=0;entryDx=0;entryDy=5;entryPerimeter=0;fontSize=9;labelBackgroundColor=none;fontColor=default;" parent="1" source="R3Ze9OEiheNbRMXw7LAC-79" target="aPycU-Eq9o8mFGcGbb0F-106" edge="1">
          <mxGeometry relative="1" as="geometry">
            <mxPoint x="1271" y="1730" as="sourcePoint" />
            <mxPoint x="1191" y="1730" as="targetPoint" />
          </mxGeometry>
        </mxCell>
        <mxCell id="aPycU-Eq9o8mFGcGbb0F-110" value="Guarda usuario como inactivo" style="html=1;verticalAlign=bottom;endArrow=block;curved=0;rounded=0;exitX=1;exitY=1;exitDx=0;exitDy=-5;exitPerimeter=0;fontSize=9;labelBackgroundColor=none;fontColor=default;entryX=1;entryY=1;entryDx=0;entryDy=-5;entryPerimeter=0;" parent="1" source="aPycU-Eq9o8mFGcGbb0F-106" target="R3Ze9OEiheNbRMXw7LAC-79" edge="1">
          <mxGeometry width="80" relative="1" as="geometry">
            <mxPoint x="1291" y="1690" as="sourcePoint" />
            <mxPoint x="1371" y="1690" as="targetPoint" />
          </mxGeometry>
        </mxCell>
        <mxCell id="aPycU-Eq9o8mFGcGbb0F-113" value="enviar email de&amp;nbsp;&lt;div&gt;confirmaciÃ³n con token&lt;/div&gt;" style="html=1;verticalAlign=bottom;endArrow=block;curved=0;rounded=0;exitX=1;exitY=0;exitDx=0;exitDy=5;exitPerimeter=0;fontSize=9;entryX=0;entryY=0;entryDx=0;entryDy=5;entryPerimeter=0;labelBackgroundColor=none;fontColor=default;" parent="1" source="aPycU-Eq9o8mFGcGbb0F-112" target="aPycU-Eq9o8mFGcGbb0F-114" edge="1">
          <mxGeometry width="80" relative="1" as="geometry">
            <mxPoint x="1291" y="1690" as="sourcePoint" />
            <mxPoint x="1371" y="1690" as="targetPoint" />
          </mxGeometry>
        </mxCell>
        <mxCell id="aPycU-Eq9o8mFGcGbb0F-115" value="recibe email" style="html=1;verticalAlign=bottom;endArrow=open;dashed=1;endSize=8;curved=0;rounded=0;exitX=0;exitY=1;exitDx=0;exitDy=-5;exitPerimeter=0;entryX=1;entryY=0;entryDx=0;entryDy=5;entryPerimeter=0;fontSize=9;labelBackgroundColor=none;fontColor=default;" parent="1" source="aPycU-Eq9o8mFGcGbb0F-114" target="aPycU-Eq9o8mFGcGbb0F-107" edge="1">
          <mxGeometry relative="1" as="geometry">
            <mxPoint x="1391" y="1690" as="sourcePoint" />
            <mxPoint x="1311" y="1690" as="targetPoint" />
          </mxGeometry>
        </mxCell>
        <mxCell id="aPycU-Eq9o8mFGcGbb0F-120" value="Hace click en enlace de confirmacion" style="html=1;verticalAlign=bottom;endArrow=block;curved=0;rounded=0;exitX=1;exitY=1;exitDx=0;exitDy=-5;exitPerimeter=0;fontSize=9;entryX=0;entryY=0;entryDx=0;entryDy=5;entryPerimeter=0;labelBackgroundColor=none;fontColor=default;" parent="1" source="aPycU-Eq9o8mFGcGbb0F-107" target="aPycU-Eq9o8mFGcGbb0F-118" edge="1">
          <mxGeometry width="80" relative="1" as="geometry">
            <mxPoint x="946" y="1790" as="sourcePoint" />
            <mxPoint x="1276" y="1790" as="targetPoint" />
          </mxGeometry>
        </mxCell>
        <mxCell id="aPycU-Eq9o8mFGcGbb0F-124" value="alt" style="shape=umlFrame;whiteSpace=wrap;html=1;pointerEvents=0;labelBackgroundColor=none;" parent="1" vertex="1">
          <mxGeometry x="1045" y="1715" width="590" height="105" as="geometry" />
        </mxCell>
        <mxCell id="aPycU-Eq9o8mFGcGbb0F-125" value="[Token valido]" style="text;align=center;fontStyle=1;verticalAlign=middle;spacingLeft=3;spacingRight=3;rotatable=0;points=[[0,0.5],[1,0.5]];portConstraint=eastwest;html=1;fontSize=10;labelBackgroundColor=none;" parent="1" vertex="1">
          <mxGeometry x="1105" y="1715" width="80" height="26" as="geometry" />
        </mxCell>
        <mxCell id="aPycU-Eq9o8mFGcGbb0F-127" value="enviar token de verificacion" style="html=1;verticalAlign=bottom;endArrow=open;curved=0;rounded=0;entryX=1;entryY=0;entryDx=0;entryDy=5;entryPerimeter=0;exitX=0;exitY=1;exitDx=0;exitDy=-5;exitPerimeter=0;fontSize=9;labelBackgroundColor=none;fontColor=default;dashed=1;endFill=0;" parent="1" source="aPycU-Eq9o8mFGcGbb0F-118" target="aPycU-Eq9o8mFGcGbb0F-126" edge="1">
          <mxGeometry width="80" relative="1" as="geometry">
            <mxPoint x="1231" y="1850" as="sourcePoint" />
            <mxPoint x="1311" y="1850" as="targetPoint" />
          </mxGeometry>
        </mxCell>
        <mxCell id="aPycU-Eq9o8mFGcGbb0F-128" value="Verificar token" style="html=1;verticalAlign=bottom;endArrow=block;curved=0;rounded=0;entryX=0;entryY=0;entryDx=0;entryDy=5;entryPerimeter=0;exitX=1;exitY=1;exitDx=0;exitDy=-5;exitPerimeter=0;fontSize=9;labelBackgroundColor=none;fontColor=default;" parent="1" source="aPycU-Eq9o8mFGcGbb0F-126" target="aPycU-Eq9o8mFGcGbb0F-121" edge="1">
          <mxGeometry width="80" relative="1" as="geometry">
            <mxPoint x="1231" y="1850" as="sourcePoint" />
            <mxPoint x="1311" y="1850" as="targetPoint" />
          </mxGeometry>
        </mxCell>
        <mxCell id="aPycU-Eq9o8mFGcGbb0F-131" value="&lt;font style=&quot;font-size: 9px;&quot;&gt;Activar usuario&lt;/font&gt;" style="html=1;verticalAlign=bottom;endArrow=open;dashed=1;endSize=8;curved=0;rounded=0;exitX=0;exitY=1;exitDx=0;exitDy=-5;exitPerimeter=0;entryX=1;entryY=0;entryDx=0;entryDy=5;entryPerimeter=0;labelBackgroundColor=none;fontColor=default;" parent="1" source="aPycU-Eq9o8mFGcGbb0F-121" target="aPycU-Eq9o8mFGcGbb0F-129" edge="1">
          <mxGeometry relative="1" as="geometry">
            <mxPoint x="1351" y="1930" as="sourcePoint" />
            <mxPoint x="1271" y="1930" as="targetPoint" />
          </mxGeometry>
        </mxCell>
        <mxCell id="aPycU-Eq9o8mFGcGbb0F-133" value="&lt;font style=&quot;font-size: 9px;&quot;&gt;Mostrar &quot;cuenta activada&quot;&lt;/font&gt;" style="html=1;verticalAlign=bottom;endArrow=open;dashed=1;endSize=8;curved=0;rounded=0;exitX=0;exitY=1;exitDx=0;exitDy=-5;exitPerimeter=0;entryX=1;entryY=0;entryDx=0;entryDy=5;entryPerimeter=0;labelBackgroundColor=none;fontColor=default;" parent="1" source="aPycU-Eq9o8mFGcGbb0F-129" target="R3Ze9OEiheNbRMXw7LAC-130" edge="1">
          <mxGeometry relative="1" as="geometry">
            <mxPoint x="1681" y="1860" as="sourcePoint" />
            <mxPoint x="1351" y="1860" as="targetPoint" />
          </mxGeometry>
        </mxCell>
        <mxCell id="aPycU-Eq9o8mFGcGbb0F-134" value="" style="endArrow=none;dashed=1;html=1;rounded=0;exitX=0.001;exitY=0.499;exitDx=0;exitDy=0;exitPerimeter=0;entryX=1.004;entryY=0.499;entryDx=0;entryDy=0;entryPerimeter=0;labelBackgroundColor=none;fontColor=default;" parent="1" edge="1">
          <mxGeometry width="50" height="50" relative="1" as="geometry">
            <mxPoint x="1045" y="1770" as="sourcePoint" />
            <mxPoint x="1636.7700000000004" y="1770" as="targetPoint" />
          </mxGeometry>
        </mxCell>
        <mxCell id="aPycU-Eq9o8mFGcGbb0F-135" value="[Token invalido]" style="text;align=center;fontStyle=1;verticalAlign=middle;spacingLeft=3;spacingRight=3;rotatable=0;points=[[0,0.5],[1,0.5]];portConstraint=eastwest;html=1;fontSize=10;labelBackgroundColor=none;" parent="1" vertex="1">
          <mxGeometry x="1110" y="1770" width="80" height="26" as="geometry" />
        </mxCell>
        <mxCell id="aPycU-Eq9o8mFGcGbb0F-139" value="&lt;span style=&quot;font-size: 9px;&quot;&gt;Mostrar error de confirmacion&lt;/span&gt;" style="html=1;verticalAlign=bottom;endArrow=open;dashed=1;endSize=8;curved=0;rounded=0;exitX=0;exitY=0;exitDx=0;exitDy=5;exitPerimeter=0;labelBackgroundColor=none;fontColor=default;entryX=1;entryY=1;entryDx=0;entryDy=-5;entryPerimeter=0;" parent="1" source="aPycU-Eq9o8mFGcGbb0F-136" target="R3Ze9OEiheNbRMXw7LAC-130" edge="1">
          <mxGeometry relative="1" as="geometry">
            <mxPoint x="1331" y="1970" as="sourcePoint" />
            <mxPoint x="1145" y="1945" as="targetPoint" />
            <Array as="points" />
          </mxGeometry>
        </mxCell>
        <mxCell id="R3Ze9OEiheNbRMXw7LAC-1" value="" style="rounded=0;whiteSpace=wrap;html=1;labelBackgroundColor=none;" parent="1" vertex="1">
          <mxGeometry x="885" y="1890" width="720" height="300" as="geometry" />
        </mxCell>
        <mxCell id="R3Ze9OEiheNbRMXw7LAC-2" value="Usuario" style="shape=umlLifeline;perimeter=lifelinePerimeter;whiteSpace=wrap;html=1;container=1;dropTarget=0;collapsible=0;recursiveResize=0;outlineConnect=0;portConstraint=eastwest;newEdgeStyle={&quot;curved&quot;:0,&quot;rounded&quot;:0};participant=umlActor;size=70;labelBackgroundColor=none;" parent="1" vertex="1">
          <mxGeometry x="975" y="1910" width="50" height="280" as="geometry" />
        </mxCell>
        <mxCell id="R3Ze9OEiheNbRMXw7LAC-4" value="" style="html=1;points=[[0,0,0,0,5],[0,1,0,0,-5],[1,0,0,0,5],[1,1,0,0,-5]];perimeter=orthogonalPerimeter;outlineConnect=0;targetShapes=umlLifeline;portConstraint=eastwest;newEdgeStyle={&quot;curved&quot;:0,&quot;rounded&quot;:0};labelBackgroundColor=none;" parent="R3Ze9OEiheNbRMXw7LAC-2" vertex="1">
          <mxGeometry x="20" y="80" width="10" height="80" as="geometry" />
        </mxCell>
        <mxCell id="R3Ze9OEiheNbRMXw7LAC-6" value="LOGIN" style="rounded=0;whiteSpace=wrap;html=1;labelBackgroundColor=none;" parent="1" vertex="1">
          <mxGeometry x="1090" y="1840" width="320" height="60" as="geometry" />
        </mxCell>
        <mxCell id="R3Ze9OEiheNbRMXw7LAC-7" value=":UI" style="shape=umlLifeline;perimeter=lifelinePerimeter;whiteSpace=wrap;html=1;container=1;dropTarget=0;collapsible=0;recursiveResize=0;outlineConnect=0;portConstraint=eastwest;newEdgeStyle={&quot;curved&quot;:0,&quot;rounded&quot;:0};participant=umlBoundary;size=60;align=center;labelBackgroundColor=none;" parent="1" vertex="1">
          <mxGeometry x="1115" y="1910" width="80" height="280" as="geometry" />
        </mxCell>
        <mxCell id="R3Ze9OEiheNbRMXw7LAC-9" value="" style="html=1;points=[[0,0,0,0,5],[0,1,0,0,-5],[1,0,0,0,5],[1,1,0,0,-5]];perimeter=orthogonalPerimeter;outlineConnect=0;targetShapes=umlLifeline;portConstraint=eastwest;newEdgeStyle={&quot;curved&quot;:0,&quot;rounded&quot;:0};labelBackgroundColor=none;" parent="R3Ze9OEiheNbRMXw7LAC-7" vertex="1">
          <mxGeometry x="35" y="80" width="10" height="30" as="geometry" />
        </mxCell>
        <mxCell id="R3Ze9OEiheNbRMXw7LAC-69" value="" style="html=1;points=[[0,0,0,0,5],[0,1,0,0,-5],[1,0,0,0,5],[1,1,0,0,-5]];perimeter=orthogonalPerimeter;outlineConnect=0;targetShapes=umlLifeline;portConstraint=eastwest;newEdgeStyle={&quot;curved&quot;:0,&quot;rounded&quot;:0};" parent="R3Ze9OEiheNbRMXw7LAC-7" vertex="1">
          <mxGeometry x="35" y="170" width="10" height="50" as="geometry" />
        </mxCell>
        <mxCell id="R3Ze9OEiheNbRMXw7LAC-82" value="" style="html=1;points=[[0,0,0,0,5],[0,1,0,0,-5],[1,0,0,0,5],[1,1,0,0,-5]];perimeter=orthogonalPerimeter;outlineConnect=0;targetShapes=umlLifeline;portConstraint=eastwest;newEdgeStyle={&quot;curved&quot;:0,&quot;rounded&quot;:0};" parent="R3Ze9OEiheNbRMXw7LAC-7" vertex="1">
          <mxGeometry x="35" y="80" width="10" height="160" as="geometry" />
        </mxCell>
        <mxCell id="R3Ze9OEiheNbRMXw7LAC-10" value="BD:LinuxLearn" style="shape=umlLifeline;perimeter=lifelinePerimeter;whiteSpace=wrap;html=1;container=1;dropTarget=0;collapsible=0;recursiveResize=0;outlineConnect=0;portConstraint=eastwest;newEdgeStyle={&quot;curved&quot;:0,&quot;rounded&quot;:0};participant=umlEntity;size=60;labelBackgroundColor=none;" parent="1" vertex="1">
          <mxGeometry x="1455" y="1900" width="80" height="290" as="geometry" />
        </mxCell>
        <mxCell id="R3Ze9OEiheNbRMXw7LAC-62" value="" style="html=1;points=[[0,0,0,0,5],[0,1,0,0,-5],[1,0,0,0,5],[1,1,0,0,-5]];perimeter=orthogonalPerimeter;outlineConnect=0;targetShapes=umlLifeline;portConstraint=eastwest;newEdgeStyle={&quot;curved&quot;:0,&quot;rounded&quot;:0};" parent="R3Ze9OEiheNbRMXw7LAC-10" vertex="1">
          <mxGeometry x="35" y="130" width="10" height="40" as="geometry" />
        </mxCell>
        <mxCell id="R3Ze9OEiheNbRMXw7LAC-73" value="" style="html=1;points=[[0,0,0,0,5],[0,1,0,0,-5],[1,0,0,0,5],[1,1,0,0,-5]];perimeter=orthogonalPerimeter;outlineConnect=0;targetShapes=umlLifeline;portConstraint=eastwest;newEdgeStyle={&quot;curved&quot;:0,&quot;rounded&quot;:0};" parent="R3Ze9OEiheNbRMXw7LAC-10" vertex="1">
          <mxGeometry x="35" y="200" width="10" height="30" as="geometry" />
        </mxCell>
        <mxCell id="R3Ze9OEiheNbRMXw7LAC-81" value="" style="html=1;points=[[0,0,0,0,5],[0,1,0,0,-5],[1,0,0,0,5],[1,1,0,0,-5]];perimeter=orthogonalPerimeter;outlineConnect=0;targetShapes=umlLifeline;portConstraint=eastwest;newEdgeStyle={&quot;curved&quot;:0,&quot;rounded&quot;:0};" parent="R3Ze9OEiheNbRMXw7LAC-10" vertex="1">
          <mxGeometry x="35" y="130" width="10" height="100" as="geometry" />
        </mxCell>
        <mxCell id="R3Ze9OEiheNbRMXw7LAC-13" value=":AppServer" style="shape=umlLifeline;perimeter=lifelinePerimeter;whiteSpace=wrap;html=1;container=1;dropTarget=0;collapsible=0;recursiveResize=0;outlineConnect=0;portConstraint=eastwest;newEdgeStyle={&quot;curved&quot;:0,&quot;rounded&quot;:0};labelBackgroundColor=none;" parent="1" vertex="1">
          <mxGeometry x="1275" y="1910" width="100" height="280" as="geometry" />
        </mxCell>
        <mxCell id="R3Ze9OEiheNbRMXw7LAC-58" value="" style="html=1;points=[[0,0,0,0,5],[0,1,0,0,-5],[1,0,0,0,5],[1,1,0,0,-5]];perimeter=orthogonalPerimeter;outlineConnect=0;targetShapes=umlLifeline;portConstraint=eastwest;newEdgeStyle={&quot;curved&quot;:0,&quot;rounded&quot;:0};" parent="R3Ze9OEiheNbRMXw7LAC-13" vertex="1">
          <mxGeometry x="45" y="100" width="10" height="30" as="geometry" />
        </mxCell>
        <mxCell id="R3Ze9OEiheNbRMXw7LAC-68" value="" style="html=1;points=[[0,0,0,0,5],[0,1,0,0,-5],[1,0,0,0,5],[1,1,0,0,-5]];perimeter=orthogonalPerimeter;outlineConnect=0;targetShapes=umlLifeline;portConstraint=eastwest;newEdgeStyle={&quot;curved&quot;:0,&quot;rounded&quot;:0};" parent="R3Ze9OEiheNbRMXw7LAC-13" vertex="1">
          <mxGeometry x="45" y="150" width="10" height="30" as="geometry" />
        </mxCell>
        <mxCell id="R3Ze9OEiheNbRMXw7LAC-83" value="" style="html=1;points=[[0,0,0,0,5],[0,1,0,0,-5],[1,0,0,0,5],[1,1,0,0,-5]];perimeter=orthogonalPerimeter;outlineConnect=0;targetShapes=umlLifeline;portConstraint=eastwest;newEdgeStyle={&quot;curved&quot;:0,&quot;rounded&quot;:0};" parent="R3Ze9OEiheNbRMXw7LAC-13" vertex="1">
          <mxGeometry x="45" y="100" width="10" height="80" as="geometry" />
        </mxCell>
        <mxCell id="R3Ze9OEiheNbRMXw7LAC-24" value="&lt;font style=&quot;font-size: 9px;&quot;&gt;Ingresar email y contraseÃ±a&lt;/font&gt;" style="html=1;verticalAlign=bottom;endArrow=block;curved=0;rounded=0;exitX=1;exitY=0;exitDx=0;exitDy=5;exitPerimeter=0;entryX=0;entryY=0;entryDx=0;entryDy=5;entryPerimeter=0;labelBackgroundColor=none;fontColor=default;" parent="1" source="R3Ze9OEiheNbRMXw7LAC-4" target="R3Ze9OEiheNbRMXw7LAC-9" edge="1">
          <mxGeometry width="80" relative="1" as="geometry">
            <mxPoint x="1102" y="2150" as="sourcePoint" />
            <mxPoint x="1182" y="2150" as="targetPoint" />
          </mxGeometry>
        </mxCell>
        <mxCell id="R3Ze9OEiheNbRMXw7LAC-61" value="&lt;font style=&quot;font-size: 9px;&quot;&gt;Enviar credenciales&lt;/font&gt;" style="html=1;verticalAlign=bottom;endArrow=block;curved=0;rounded=0;exitX=1;exitY=1;exitDx=0;exitDy=-5;exitPerimeter=0;entryX=0;entryY=0;entryDx=0;entryDy=5;entryPerimeter=0;labelBackgroundColor=none;fontColor=default;" parent="1" source="R3Ze9OEiheNbRMXw7LAC-9" target="R3Ze9OEiheNbRMXw7LAC-58" edge="1">
          <mxGeometry width="80" relative="1" as="geometry">
            <mxPoint x="1095" y="2120" as="sourcePoint" />
            <mxPoint x="1349" y="2120" as="targetPoint" />
          </mxGeometry>
        </mxCell>
        <mxCell id="R3Ze9OEiheNbRMXw7LAC-63" value="&lt;font style=&quot;font-size: 9px;&quot;&gt;Validar credenciales&lt;/font&gt;" style="html=1;verticalAlign=bottom;endArrow=block;curved=0;rounded=0;exitX=1;exitY=1;exitDx=0;exitDy=-5;exitPerimeter=0;entryX=0;entryY=0;entryDx=0;entryDy=5;entryPerimeter=0;labelBackgroundColor=none;fontColor=default;" parent="1" source="R3Ze9OEiheNbRMXw7LAC-58" target="R3Ze9OEiheNbRMXw7LAC-62" edge="1">
          <mxGeometry width="80" relative="1" as="geometry">
            <mxPoint x="1205" y="2120" as="sourcePoint" />
            <mxPoint x="1346" y="2120" as="targetPoint" />
          </mxGeometry>
        </mxCell>
        <mxCell id="R3Ze9OEiheNbRMXw7LAC-66" value="&lt;font size=&quot;1&quot;&gt;Usuario valido&lt;/font&gt;" style="html=1;verticalAlign=bottom;endArrow=open;dashed=1;endSize=8;curved=0;rounded=0;entryX=1;entryY=0;entryDx=0;entryDy=5;entryPerimeter=0;exitX=0;exitY=1;exitDx=0;exitDy=-5;exitPerimeter=0;labelBackgroundColor=none;fontColor=default;" parent="1" source="R3Ze9OEiheNbRMXw7LAC-62" target="R3Ze9OEiheNbRMXw7LAC-68" edge="1">
          <mxGeometry relative="1" as="geometry">
            <mxPoint x="1566" y="2220" as="sourcePoint" />
            <mxPoint x="1425" y="2220" as="targetPoint" />
            <Array as="points" />
          </mxGeometry>
        </mxCell>
        <mxCell id="R3Ze9OEiheNbRMXw7LAC-71" value="&lt;font size=&quot;1&quot;&gt;mostrar home&lt;/font&gt;" style="html=1;verticalAlign=bottom;endArrow=open;dashed=1;endSize=8;curved=0;rounded=0;entryX=1;entryY=0;entryDx=0;entryDy=5;entryPerimeter=0;exitX=0;exitY=1;exitDx=0;exitDy=-5;exitPerimeter=0;labelBackgroundColor=none;fontColor=default;" parent="1" source="R3Ze9OEiheNbRMXw7LAC-68" target="R3Ze9OEiheNbRMXw7LAC-69" edge="1">
          <mxGeometry relative="1" as="geometry">
            <mxPoint x="1635" y="2200" as="sourcePoint" />
            <mxPoint x="1335" y="2200" as="targetPoint" />
            <Array as="points" />
          </mxGeometry>
        </mxCell>
        <mxCell id="R3Ze9OEiheNbRMXw7LAC-74" value="&lt;font size=&quot;1&quot;&gt;mostrar error (credenciales incorrectas)&lt;/font&gt;" style="html=1;verticalAlign=bottom;endArrow=open;dashed=1;endSize=8;curved=0;rounded=0;entryX=1;entryY=1;entryDx=0;entryDy=-5;entryPerimeter=0;exitX=0;exitY=1;exitDx=0;exitDy=-5;exitPerimeter=0;labelBackgroundColor=none;fontColor=default;" parent="1" source="R3Ze9OEiheNbRMXw7LAC-73" target="R3Ze9OEiheNbRMXw7LAC-69" edge="1">
          <mxGeometry x="0.0015" relative="1" as="geometry">
            <mxPoint x="1376" y="2230" as="sourcePoint" />
            <mxPoint x="1235" y="2230" as="targetPoint" />
            <Array as="points" />
            <mxPoint as="offset" />
          </mxGeometry>
        </mxCell>
        <mxCell id="R3Ze9OEiheNbRMXw7LAC-65" value="[Credenciales correctas]" style="text;align=center;fontStyle=1;verticalAlign=middle;spacingLeft=3;spacingRight=3;rotatable=0;points=[[0,0.5],[1,0.5]];portConstraint=eastwest;html=1;fontSize=10;labelBackgroundColor=none;" parent="1" vertex="1">
          <mxGeometry x="1090" y="2040" width="120" height="26" as="geometry" />
        </mxCell>
        <mxCell id="R3Ze9OEiheNbRMXw7LAC-64" value="alt" style="shape=umlFrame;whiteSpace=wrap;html=1;pointerEvents=0;" parent="1" vertex="1">
          <mxGeometry x="1030.89" y="2040" width="540" height="117" as="geometry" />
        </mxCell>
        <mxCell id="R3Ze9OEiheNbRMXw7LAC-119" value="RECUPERAR CONTRASEÃA" style="rounded=0;whiteSpace=wrap;html=1;labelBackgroundColor=none;" parent="1" vertex="1">
          <mxGeometry x="1081" y="2350" width="320" height="60" as="geometry" />
        </mxCell>
        <mxCell id="R3Ze9OEiheNbRMXw7LAC-121" value="Usuario" style="shape=umlLifeline;perimeter=lifelinePerimeter;whiteSpace=wrap;html=1;container=1;dropTarget=0;collapsible=0;recursiveResize=0;outlineConnect=0;portConstraint=eastwest;newEdgeStyle={&quot;curved&quot;:0,&quot;rounded&quot;:0};participant=umlActor;size=70;labelBackgroundColor=none;" parent="1" vertex="1">
          <mxGeometry x="890" y="2423" width="50" height="717" as="geometry" />
        </mxCell>
        <mxCell id="R3Ze9OEiheNbRMXw7LAC-179" value="" style="html=1;points=[[0,0,0,0,5],[0,1,0,0,-5],[1,0,0,0,5],[1,1,0,0,-5]];perimeter=orthogonalPerimeter;outlineConnect=0;targetShapes=umlLifeline;portConstraint=eastwest;newEdgeStyle={&quot;curved&quot;:0,&quot;rounded&quot;:0};" parent="R3Ze9OEiheNbRMXw7LAC-121" vertex="1">
          <mxGeometry x="20" y="337" width="10" height="53" as="geometry" />
        </mxCell>
        <mxCell id="R3Ze9OEiheNbRMXw7LAC-196" value="" style="html=1;points=[[0,0,0,0,5],[0,1,0,0,-5],[1,0,0,0,5],[1,1,0,0,-5]];perimeter=orthogonalPerimeter;outlineConnect=0;targetShapes=umlLifeline;portConstraint=eastwest;newEdgeStyle={&quot;curved&quot;:0,&quot;rounded&quot;:0};" parent="R3Ze9OEiheNbRMXw7LAC-121" vertex="1">
          <mxGeometry x="20" y="507" width="10" height="43" as="geometry" />
        </mxCell>
        <mxCell id="R3Ze9OEiheNbRMXw7LAC-144" value="" style="html=1;points=[[0,0,0,0,5],[0,1,0,0,-5],[1,0,0,0,5],[1,1,0,0,-5]];perimeter=orthogonalPerimeter;outlineConnect=0;targetShapes=umlLifeline;portConstraint=eastwest;newEdgeStyle={&quot;curved&quot;:0,&quot;rounded&quot;:0};" parent="R3Ze9OEiheNbRMXw7LAC-121" vertex="1">
          <mxGeometry x="20" y="97" width="10" height="593" as="geometry" />
        </mxCell>
        <mxCell id="R3Ze9OEiheNbRMXw7LAC-126" value="" style="endArrow=none;dashed=1;html=1;rounded=0;exitX=0;exitY=0.549;exitDx=0;exitDy=0;exitPerimeter=0;entryX=1.001;entryY=0.522;entryDx=0;entryDy=0;entryPerimeter=0;" parent="1" target="R3Ze9OEiheNbRMXw7LAC-64" edge="1">
          <mxGeometry width="50" height="50" relative="1" as="geometry">
            <mxPoint x="1031.43" y="2100.003" as="sourcePoint" />
            <mxPoint x="1499.99" y="2098.63" as="targetPoint" />
          </mxGeometry>
        </mxCell>
        <mxCell id="R3Ze9OEiheNbRMXw7LAC-131" value=":UI" style="shape=umlLifeline;perimeter=lifelinePerimeter;whiteSpace=wrap;html=1;container=1;dropTarget=0;collapsible=0;recursiveResize=0;outlineConnect=0;portConstraint=eastwest;newEdgeStyle={&quot;curved&quot;:0,&quot;rounded&quot;:0};participant=umlBoundary;size=60;align=center;labelBackgroundColor=none;" parent="1" vertex="1">
          <mxGeometry x="1030" y="2423" width="80" height="717" as="geometry" />
        </mxCell>
        <mxCell id="R3Ze9OEiheNbRMXw7LAC-147" value="" style="html=1;points=[[0,0,0,0,5],[0,1,0,0,-5],[1,0,0,0,5],[1,1,0,0,-5]];perimeter=orthogonalPerimeter;outlineConnect=0;targetShapes=umlLifeline;portConstraint=eastwest;newEdgeStyle={&quot;curved&quot;:0,&quot;rounded&quot;:0};" parent="R3Ze9OEiheNbRMXw7LAC-131" vertex="1">
          <mxGeometry x="35" y="97" width="10" height="33" as="geometry" />
        </mxCell>
        <mxCell id="R3Ze9OEiheNbRMXw7LAC-181" value="" style="html=1;points=[[0,0,0,0,5],[0,1,0,0,-5],[1,0,0,0,5],[1,1,0,0,-5]];perimeter=orthogonalPerimeter;outlineConnect=0;targetShapes=umlLifeline;portConstraint=eastwest;newEdgeStyle={&quot;curved&quot;:0,&quot;rounded&quot;:0};" parent="R3Ze9OEiheNbRMXw7LAC-131" vertex="1">
          <mxGeometry x="35" y="377" width="10" height="23" as="geometry" />
        </mxCell>
        <mxCell id="R3Ze9OEiheNbRMXw7LAC-209" value="" style="html=1;points=[[0,0,0,0,5],[0,1,0,0,-5],[1,0,0,0,5],[1,1,0,0,-5]];perimeter=orthogonalPerimeter;outlineConnect=0;targetShapes=umlLifeline;portConstraint=eastwest;newEdgeStyle={&quot;curved&quot;:0,&quot;rounded&quot;:0};" parent="R3Ze9OEiheNbRMXw7LAC-131" vertex="1">
          <mxGeometry x="35" y="97" width="10" height="593" as="geometry" />
        </mxCell>
        <mxCell id="R3Ze9OEiheNbRMXw7LAC-135" value=":AppServer" style="shape=umlLifeline;perimeter=lifelinePerimeter;whiteSpace=wrap;html=1;container=1;dropTarget=0;collapsible=0;recursiveResize=0;outlineConnect=0;portConstraint=eastwest;newEdgeStyle={&quot;curved&quot;:0,&quot;rounded&quot;:0};labelBackgroundColor=none;" parent="1" vertex="1">
          <mxGeometry x="1180" y="2430" width="100" height="710" as="geometry" />
        </mxCell>
        <mxCell id="R3Ze9OEiheNbRMXw7LAC-160" value="" style="html=1;points=[[0,0,0,0,5],[0,1,0,0,-5],[1,0,0,0,5],[1,1,0,0,-5]];perimeter=orthogonalPerimeter;outlineConnect=0;targetShapes=umlLifeline;portConstraint=eastwest;newEdgeStyle={&quot;curved&quot;:0,&quot;rounded&quot;:0};" parent="R3Ze9OEiheNbRMXw7LAC-135" vertex="1">
          <mxGeometry x="45" y="110" width="10" height="40" as="geometry" />
        </mxCell>
        <mxCell id="R3Ze9OEiheNbRMXw7LAC-165" value="" style="html=1;points=[[0,0,0,0,5],[0,1,0,0,-5],[1,0,0,0,5],[1,1,0,0,-5]];perimeter=orthogonalPerimeter;outlineConnect=0;targetShapes=umlLifeline;portConstraint=eastwest;newEdgeStyle={&quot;curved&quot;:0,&quot;rounded&quot;:0};" parent="R3Ze9OEiheNbRMXw7LAC-135" vertex="1">
          <mxGeometry x="45" y="180" width="10" height="40" as="geometry" />
        </mxCell>
        <mxCell id="R3Ze9OEiheNbRMXw7LAC-176" value="" style="html=1;points=[[0,0,0,0,5],[0,1,0,0,-5],[1,0,0,0,5],[1,1,0,0,-5]];perimeter=orthogonalPerimeter;outlineConnect=0;targetShapes=umlLifeline;portConstraint=eastwest;newEdgeStyle={&quot;curved&quot;:0,&quot;rounded&quot;:0};" parent="R3Ze9OEiheNbRMXw7LAC-135" vertex="1">
          <mxGeometry x="45" y="290" width="10" height="20" as="geometry" />
        </mxCell>
        <mxCell id="R3Ze9OEiheNbRMXw7LAC-183" value="" style="html=1;points=[[0,0,0,0,5],[0,1,0,0,-5],[1,0,0,0,5],[1,1,0,0,-5]];perimeter=orthogonalPerimeter;outlineConnect=0;targetShapes=umlLifeline;portConstraint=eastwest;newEdgeStyle={&quot;curved&quot;:0,&quot;rounded&quot;:0};" parent="R3Ze9OEiheNbRMXw7LAC-135" vertex="1">
          <mxGeometry x="45" y="380" width="10" height="30" as="geometry" />
        </mxCell>
        <mxCell id="R3Ze9OEiheNbRMXw7LAC-203" value="" style="html=1;points=[[0,0,0,0,5],[0,1,0,0,-5],[1,0,0,0,5],[1,1,0,0,-5]];perimeter=orthogonalPerimeter;outlineConnect=0;targetShapes=umlLifeline;portConstraint=eastwest;newEdgeStyle={&quot;curved&quot;:0,&quot;rounded&quot;:0};" parent="R3Ze9OEiheNbRMXw7LAC-135" vertex="1">
          <mxGeometry x="45" y="550" width="10" height="20" as="geometry" />
        </mxCell>
        <mxCell id="R3Ze9OEiheNbRMXw7LAC-206" value="" style="html=1;points=[[0,0,0,0,5],[0,1,0,0,-5],[1,0,0,0,5],[1,1,0,0,-5]];perimeter=orthogonalPerimeter;outlineConnect=0;targetShapes=umlLifeline;portConstraint=eastwest;newEdgeStyle={&quot;curved&quot;:0,&quot;rounded&quot;:0};" parent="R3Ze9OEiheNbRMXw7LAC-135" vertex="1">
          <mxGeometry x="45" y="610" width="10" height="30" as="geometry" />
        </mxCell>
        <mxCell id="R3Ze9OEiheNbRMXw7LAC-210" value="" style="html=1;points=[[0,0,0,0,5],[0,1,0,0,-5],[1,0,0,0,5],[1,1,0,0,-5]];perimeter=orthogonalPerimeter;outlineConnect=0;targetShapes=umlLifeline;portConstraint=eastwest;newEdgeStyle={&quot;curved&quot;:0,&quot;rounded&quot;:0};" parent="R3Ze9OEiheNbRMXw7LAC-135" vertex="1">
          <mxGeometry x="45" y="110" width="10" height="560" as="geometry" />
        </mxCell>
        <mxCell id="R3Ze9OEiheNbRMXw7LAC-139" value="BD:LinuxLearn" style="shape=umlLifeline;perimeter=lifelinePerimeter;whiteSpace=wrap;html=1;container=1;dropTarget=0;collapsible=0;recursiveResize=0;outlineConnect=0;portConstraint=eastwest;newEdgeStyle={&quot;curved&quot;:0,&quot;rounded&quot;:0};participant=umlEntity;size=60;labelBackgroundColor=none;" parent="1" vertex="1">
          <mxGeometry x="1530" y="2410" width="80" height="730" as="geometry" />
        </mxCell>
        <mxCell id="R3Ze9OEiheNbRMXw7LAC-162" value="" style="html=1;points=[[0,0,0,0,5],[0,1,0,0,-5],[1,0,0,0,5],[1,1,0,0,-5]];perimeter=orthogonalPerimeter;outlineConnect=0;targetShapes=umlLifeline;portConstraint=eastwest;newEdgeStyle={&quot;curved&quot;:0,&quot;rounded&quot;:0};" parent="R3Ze9OEiheNbRMXw7LAC-139" vertex="1">
          <mxGeometry x="35.89" y="160" width="10" height="50" as="geometry" />
        </mxCell>
        <mxCell id="R3Ze9OEiheNbRMXw7LAC-171" value="" style="html=1;points=[[0,0,0,0,5],[0,1,0,0,-5],[1,0,0,0,5],[1,1,0,0,-5]];perimeter=orthogonalPerimeter;outlineConnect=0;targetShapes=umlLifeline;portConstraint=eastwest;newEdgeStyle={&quot;curved&quot;:0,&quot;rounded&quot;:0};" parent="R3Ze9OEiheNbRMXw7LAC-139" vertex="1">
          <mxGeometry x="35" y="270" width="10" height="30" as="geometry" />
        </mxCell>
        <mxCell id="R3Ze9OEiheNbRMXw7LAC-175" value="" style="html=1;points=[[0,0,0,0,5],[0,1,0,0,-5],[1,0,0,0,5],[1,1,0,0,-5]];perimeter=orthogonalPerimeter;outlineConnect=0;targetShapes=umlLifeline;portConstraint=eastwest;newEdgeStyle={&quot;curved&quot;:0,&quot;rounded&quot;:0};" parent="R3Ze9OEiheNbRMXw7LAC-139" vertex="1">
          <mxGeometry x="35.89" y="310" width="10" height="50" as="geometry" />
        </mxCell>
        <mxCell id="R3Ze9OEiheNbRMXw7LAC-185" value="" style="html=1;points=[[0,0,0,0,5],[0,1,0,0,-5],[1,0,0,0,5],[1,1,0,0,-5]];perimeter=orthogonalPerimeter;outlineConnect=0;targetShapes=umlLifeline;portConstraint=eastwest;newEdgeStyle={&quot;curved&quot;:0,&quot;rounded&quot;:0};spacing=2;spacingBottom=0;strokeWidth=1;" parent="R3Ze9OEiheNbRMXw7LAC-139" vertex="1">
          <mxGeometry x="35" y="421" width="10" height="80" as="geometry" />
        </mxCell>
        <mxCell id="R3Ze9OEiheNbRMXw7LAC-199" value="" style="html=1;points=[[0,0,0,0,5],[0,1,0,0,-5],[1,0,0,0,5],[1,1,0,0,-5]];perimeter=orthogonalPerimeter;outlineConnect=0;targetShapes=umlLifeline;portConstraint=eastwest;newEdgeStyle={&quot;curved&quot;:0,&quot;rounded&quot;:0};" parent="R3Ze9OEiheNbRMXw7LAC-139" vertex="1">
          <mxGeometry x="35" y="540" width="10" height="100" as="geometry" />
        </mxCell>
        <mxCell id="R3Ze9OEiheNbRMXw7LAC-148" value="Pide recuperar contraseÃ±a" style="html=1;verticalAlign=bottom;endArrow=block;curved=0;rounded=0;exitX=1;exitY=0;exitDx=0;exitDy=5;exitPerimeter=0;entryX=0;entryY=0;entryDx=0;entryDy=5;entryPerimeter=0;fontSize=9;" parent="1" source="R3Ze9OEiheNbRMXw7LAC-144" target="R3Ze9OEiheNbRMXw7LAC-147" edge="1">
          <mxGeometry width="80" relative="1" as="geometry">
            <mxPoint x="1235" y="2670" as="sourcePoint" />
            <mxPoint x="1315" y="2670" as="targetPoint" />
          </mxGeometry>
        </mxCell>
        <mxCell id="R3Ze9OEiheNbRMXw7LAC-149" value=":CorreoService&lt;span style=&quot;color: rgba(0, 0, 0, 0); font-family: monospace; font-size: 0px; text-align: start; text-wrap-mode: nowrap;&quot;&gt;%3CmxGraphModel%3E%3Croot%3E%3CmxCell%20id%3D%220%22%2F%3E%3CmxCell%20id%3D%221%22%20parent%3D%220%22%2F%3E%3CmxCell%20id%3D%222%22%20value%3D%22%3AObject%22%20style%3D%22shape%3DumlLifeline%3Bperimeter%3DlifelinePerimeter%3BwhiteSpace%3Dwrap%3Bhtml%3D1%3Bcontainer%3D1%3BdropTarget%3D0%3Bcollapsible%3D0%3BrecursiveResize%3D0%3BoutlineConnect%3D0%3BportConstraint%3Deastwest%3BnewEdgeStyle%3D%7B%26quot%3Bcurved%26quot%3B%3A0%2C%26quot%3Brounded%26quot%3B%3A0%7D%3B%22%20vertex%3D%221%22%20parent%3D%221%22%3E%3CmxGeometry%20x%3D%22254%22%20y%3D%22140%22%20width%3D%22100%22%20height%3D%22300%22%20as%3D%22geometry%22%2F%3E%3C%2FmxCell%3E%3C%2Froot%3E%3C%2FmxGraphModel%3E&lt;/span&gt;" style="shape=umlLifeline;perimeter=lifelinePerimeter;whiteSpace=wrap;html=1;container=1;dropTarget=0;collapsible=0;recursiveResize=0;outlineConnect=0;portConstraint=eastwest;newEdgeStyle={&quot;curved&quot;:0,&quot;rounded&quot;:0};size=40;labelBackgroundColor=none;" parent="1" vertex="1">
          <mxGeometry x="1360" y="2430" width="100" height="710" as="geometry" />
        </mxCell>
        <mxCell id="R3Ze9OEiheNbRMXw7LAC-212" value="" style="html=1;points=[[0,0,0,0,5],[0,1,0,0,-5],[1,0,0,0,5],[1,1,0,0,-5]];perimeter=orthogonalPerimeter;outlineConnect=0;targetShapes=umlLifeline;portConstraint=eastwest;newEdgeStyle={&quot;curved&quot;:0,&quot;rounded&quot;:0};" parent="R3Ze9OEiheNbRMXw7LAC-149" vertex="1">
          <mxGeometry x="45" y="300" width="10" height="40" as="geometry" />
        </mxCell>
        <mxCell id="R3Ze9OEiheNbRMXw7LAC-159" value="Enviar solicitud de recuperacion" style="html=1;verticalAlign=bottom;endArrow=block;curved=0;rounded=0;exitX=1;exitY=1;exitDx=0;exitDy=-5;exitPerimeter=0;fontSize=9;" parent="1" source="R3Ze9OEiheNbRMXw7LAC-147" target="R3Ze9OEiheNbRMXw7LAC-160" edge="1">
          <mxGeometry x="0.0005" width="80" relative="1" as="geometry">
            <mxPoint x="1145" y="2600" as="sourcePoint" />
            <mxPoint x="1225" y="2545" as="targetPoint" />
            <mxPoint as="offset" />
          </mxGeometry>
        </mxCell>
        <mxCell id="R3Ze9OEiheNbRMXw7LAC-161" value="verificar si email existe" style="html=1;verticalAlign=bottom;endArrow=block;curved=0;rounded=0;exitX=1;exitY=1;exitDx=0;exitDy=-5;exitPerimeter=0;entryX=0;entryY=0;entryDx=0;entryDy=5;entryPerimeter=0;fontSize=9;" parent="1" source="R3Ze9OEiheNbRMXw7LAC-160" target="R3Ze9OEiheNbRMXw7LAC-162" edge="1">
          <mxGeometry x="0.0275" y="5" width="80" relative="1" as="geometry">
            <mxPoint x="1305" y="2630" as="sourcePoint" />
            <mxPoint x="1385" y="2630" as="targetPoint" />
            <mxPoint as="offset" />
          </mxGeometry>
        </mxCell>
        <mxCell id="R3Ze9OEiheNbRMXw7LAC-163" value="alt" style="shape=umlFrame;whiteSpace=wrap;html=1;pointerEvents=0;" parent="1" vertex="1">
          <mxGeometry x="855" y="2590" width="760" height="190" as="geometry" />
        </mxCell>
        <mxCell id="R3Ze9OEiheNbRMXw7LAC-164" value="[Email no registrado]" style="text;align=center;fontStyle=1;verticalAlign=middle;spacingLeft=3;spacingRight=3;rotatable=0;points=[[0,0.5],[1,0.5]];portConstraint=eastwest;html=1;fontSize=10;labelBackgroundColor=none;" parent="1" vertex="1">
          <mxGeometry x="916" y="2590" width="120" height="26" as="geometry" />
        </mxCell>
        <mxCell id="R3Ze9OEiheNbRMXw7LAC-166" value="No existe" style="html=1;verticalAlign=bottom;endArrow=open;dashed=1;endSize=8;curved=0;rounded=0;exitX=0;exitY=1;exitDx=0;exitDy=-5;exitPerimeter=0;entryX=1;entryY=0;entryDx=0;entryDy=5;entryPerimeter=0;fontSize=9;" parent="1" source="R3Ze9OEiheNbRMXw7LAC-162" target="R3Ze9OEiheNbRMXw7LAC-165" edge="1">
          <mxGeometry relative="1" as="geometry">
            <mxPoint x="1335" y="2800" as="sourcePoint" />
            <mxPoint x="1255" y="2800" as="targetPoint" />
          </mxGeometry>
        </mxCell>
        <mxCell id="R3Ze9OEiheNbRMXw7LAC-168" value="Mostrar &quot;correo no encontrado&quot;" style="html=1;verticalAlign=bottom;endArrow=open;dashed=1;endSize=8;curved=0;rounded=0;exitX=0;exitY=1;exitDx=0;exitDy=-5;exitPerimeter=0;entryX=1;entryY=0;entryDx=0;entryDy=5;entryPerimeter=0;fontSize=9;" parent="1" source="R3Ze9OEiheNbRMXw7LAC-165" target="R3Ze9OEiheNbRMXw7LAC-167" edge="1">
          <mxGeometry relative="1" as="geometry">
            <mxPoint x="1685" y="2610" as="sourcePoint" />
            <mxPoint x="1355" y="2610" as="targetPoint" />
          </mxGeometry>
        </mxCell>
        <mxCell id="R3Ze9OEiheNbRMXw7LAC-169" value="" style="endArrow=none;dashed=1;html=1;rounded=0;exitX=-0.001;exitY=0.443;exitDx=0;exitDy=0;exitPerimeter=0;entryX=1.001;entryY=0.438;entryDx=0;entryDy=0;entryPerimeter=0;" parent="1" edge="1">
          <mxGeometry width="50" height="50" relative="1" as="geometry">
            <mxPoint x="856" y="2671.05" as="sourcePoint" />
            <mxPoint x="1617.5199999999998" y="2670" as="targetPoint" />
          </mxGeometry>
        </mxCell>
        <mxCell id="R3Ze9OEiheNbRMXw7LAC-170" value="[Email valido&lt;span style=&quot;background-color: transparent; color: light-dark(rgb(0, 0, 0), rgb(255, 255, 255));&quot;&gt;]&lt;/span&gt;" style="text;align=center;fontStyle=1;verticalAlign=middle;spacingLeft=3;spacingRight=3;rotatable=0;points=[[0,0.5],[1,0.5]];portConstraint=eastwest;html=1;fontSize=10;labelBackgroundColor=none;" parent="1" vertex="1">
          <mxGeometry x="856" y="2682" width="120" height="26" as="geometry" />
        </mxCell>
        <mxCell id="R3Ze9OEiheNbRMXw7LAC-173" value="Usuario valido" style="html=1;verticalAlign=bottom;endArrow=open;dashed=1;endSize=8;curved=0;rounded=0;exitX=0;exitY=0;exitDx=0;exitDy=5;exitPerimeter=0;entryX=1;entryY=0;entryDx=0;entryDy=5;entryPerimeter=0;fontSize=9;" parent="1" source="R3Ze9OEiheNbRMXw7LAC-171" target="R3Ze9OEiheNbRMXw7LAC-172" edge="1">
          <mxGeometry relative="1" as="geometry">
            <mxPoint x="1705" y="2620" as="sourcePoint" />
            <mxPoint x="1375" y="2620" as="targetPoint" />
          </mxGeometry>
        </mxCell>
        <mxCell id="R3Ze9OEiheNbRMXw7LAC-174" value="Generar y guardar token de recuperaciÃ³n" style="html=1;verticalAlign=bottom;endArrow=block;curved=0;rounded=0;exitX=1;exitY=1;exitDx=0;exitDy=-5;exitPerimeter=0;entryX=0;entryY=1;entryDx=0;entryDy=-5;entryPerimeter=0;fontSize=9;" parent="1" source="R3Ze9OEiheNbRMXw7LAC-172" target="R3Ze9OEiheNbRMXw7LAC-171" edge="1">
          <mxGeometry x="0.0005" width="80" relative="1" as="geometry">
            <mxPoint x="1155" y="2550" as="sourcePoint" />
            <mxPoint x="1305" y="2550" as="targetPoint" />
            <mxPoint as="offset" />
          </mxGeometry>
        </mxCell>
        <mxCell id="R3Ze9OEiheNbRMXw7LAC-177" value="Enviar correo con enlace de recuperacion" style="html=1;verticalAlign=bottom;endArrow=block;curved=0;rounded=0;exitX=1;exitY=0;exitDx=0;exitDy=5;exitPerimeter=0;fontSize=9;entryX=0;entryY=0;entryDx=0;entryDy=5;entryPerimeter=0;" parent="1" edge="1">
          <mxGeometry x="0.0005" width="80" relative="1" as="geometry">
            <mxPoint x="1235" y="2740" as="sourcePoint" />
            <mxPoint x="1405" y="2740" as="targetPoint" />
            <mxPoint as="offset" />
          </mxGeometry>
        </mxCell>
        <mxCell id="R3Ze9OEiheNbRMXw7LAC-178" value="Recibe email" style="html=1;verticalAlign=bottom;endArrow=open;dashed=1;endSize=8;curved=0;rounded=0;fontSize=9;entryX=1;entryY=0;entryDx=0;entryDy=5;entryPerimeter=0;exitX=0;exitY=1;exitDx=0;exitDy=-5;exitPerimeter=0;" parent="1" source="R3Ze9OEiheNbRMXw7LAC-212" target="R3Ze9OEiheNbRMXw7LAC-179" edge="1">
          <mxGeometry relative="1" as="geometry">
            <mxPoint x="1775" y="2620" as="sourcePoint" />
            <mxPoint x="1445" y="2620" as="targetPoint" />
          </mxGeometry>
        </mxCell>
        <mxCell id="R3Ze9OEiheNbRMXw7LAC-182" value="Click enlace de recuperaciÃ³n" style="html=1;verticalAlign=bottom;endArrow=block;curved=0;rounded=0;exitX=1;exitY=1;exitDx=0;exitDy=-5;exitPerimeter=0;fontSize=9;" parent="1" source="R3Ze9OEiheNbRMXw7LAC-179" target="R3Ze9OEiheNbRMXw7LAC-181" edge="1">
          <mxGeometry x="0.0275" y="5" width="80" relative="1" as="geometry">
            <mxPoint x="1365" y="2570" as="sourcePoint" />
            <mxPoint x="1064.9999999999998" y="2805" as="targetPoint" />
            <mxPoint as="offset" />
          </mxGeometry>
        </mxCell>
        <mxCell id="R3Ze9OEiheNbRMXw7LAC-184" value="Enviar token" style="html=1;verticalAlign=bottom;endArrow=block;curved=0;rounded=0;exitX=1;exitY=1;exitDx=0;exitDy=-5;exitPerimeter=0;fontSize=9;" parent="1" source="R3Ze9OEiheNbRMXw7LAC-181" target="R3Ze9OEiheNbRMXw7LAC-183" edge="1">
          <mxGeometry x="0.0275" y="5" width="80" relative="1" as="geometry">
            <mxPoint x="995" y="2800" as="sourcePoint" />
            <mxPoint x="1140" y="2800" as="targetPoint" />
            <mxPoint as="offset" />
          </mxGeometry>
        </mxCell>
        <mxCell id="R3Ze9OEiheNbRMXw7LAC-186" value="Validar token" style="html=1;verticalAlign=bottom;endArrow=block;curved=0;rounded=0;exitX=1;exitY=1;exitDx=0;exitDy=-5;exitPerimeter=0;fontSize=9;entryX=0;entryY=0;entryDx=0;entryDy=5;entryPerimeter=0;" parent="1" source="R3Ze9OEiheNbRMXw7LAC-183" target="R3Ze9OEiheNbRMXw7LAC-185" edge="1">
          <mxGeometry x="0.0275" y="5" width="80" relative="1" as="geometry">
            <mxPoint x="1185" y="2830" as="sourcePoint" />
            <mxPoint x="1336" y="2830" as="targetPoint" />
            <mxPoint as="offset" />
          </mxGeometry>
        </mxCell>
        <mxCell id="R3Ze9OEiheNbRMXw7LAC-188" value="alt" style="shape=umlFrame;whiteSpace=wrap;html=1;pointerEvents=0;" parent="1" vertex="1">
          <mxGeometry x="859.74" y="2860" width="760" height="250" as="geometry" />
        </mxCell>
        <mxCell id="R3Ze9OEiheNbRMXw7LAC-189" value="[Token valido]" style="text;align=center;fontStyle=1;verticalAlign=middle;spacingLeft=3;spacingRight=3;rotatable=0;points=[[0,0.5],[1,0.5]];portConstraint=eastwest;html=1;fontSize=10;labelBackgroundColor=none;" parent="1" vertex="1">
          <mxGeometry x="920.74" y="2860" width="120" height="26" as="geometry" />
        </mxCell>
        <mxCell id="R3Ze9OEiheNbRMXw7LAC-190" value="" style="endArrow=none;dashed=1;html=1;rounded=0;exitX=-0.001;exitY=0.443;exitDx=0;exitDy=0;exitPerimeter=0;entryX=1.001;entryY=0.438;entryDx=0;entryDy=0;entryPerimeter=0;" parent="1" edge="1">
          <mxGeometry width="50" height="50" relative="1" as="geometry">
            <mxPoint x="860.74" y="3011.05" as="sourcePoint" />
            <mxPoint x="1622.2599999999998" y="3010" as="targetPoint" />
          </mxGeometry>
        </mxCell>
        <mxCell id="R3Ze9OEiheNbRMXw7LAC-191" value="[Token invalido&lt;span style=&quot;background-color: transparent; color: light-dark(rgb(0, 0, 0), rgb(255, 255, 255));&quot;&gt;]&lt;/span&gt;" style="text;align=center;fontStyle=1;verticalAlign=middle;spacingLeft=3;spacingRight=3;rotatable=0;points=[[0,0.5],[1,0.5]];portConstraint=eastwest;html=1;fontSize=10;labelBackgroundColor=none;" parent="1" vertex="1">
          <mxGeometry x="859.74" y="3017" width="120" height="26" as="geometry" />
        </mxCell>
        <mxCell id="R3Ze9OEiheNbRMXw7LAC-192" value="Token correcto" style="html=1;verticalAlign=bottom;endArrow=open;dashed=1;endSize=8;curved=0;rounded=0;exitX=0;exitY=1;exitDx=0;exitDy=-5;exitPerimeter=0;entryX=1;entryY=0;entryDx=0;entryDy=5;entryPerimeter=0;fontSize=9;" parent="1" source="R3Ze9OEiheNbRMXw7LAC-185" target="R3Ze9OEiheNbRMXw7LAC-193" edge="1">
          <mxGeometry relative="1" as="geometry">
            <mxPoint x="1566" y="2900" as="sourcePoint" />
            <mxPoint x="1236" y="2900" as="targetPoint" />
          </mxGeometry>
        </mxCell>
        <mxCell id="R3Ze9OEiheNbRMXw7LAC-195" value="Mostrar formulario para&amp;nbsp;&lt;div&gt;nueva contraseÃ±a&lt;/div&gt;" style="html=1;verticalAlign=bottom;endArrow=open;dashed=1;endSize=8;curved=0;rounded=0;exitX=0;exitY=1;exitDx=0;exitDy=-5;exitPerimeter=0;entryX=1;entryY=0;entryDx=0;entryDy=5;entryPerimeter=0;fontSize=9;" parent="1" source="R3Ze9OEiheNbRMXw7LAC-193" target="R3Ze9OEiheNbRMXw7LAC-194" edge="1">
          <mxGeometry relative="1" as="geometry">
            <mxPoint x="1615" y="2901" as="sourcePoint" />
            <mxPoint x="1285" y="2900" as="targetPoint" />
          </mxGeometry>
        </mxCell>
        <mxCell id="R3Ze9OEiheNbRMXw7LAC-197" value="ingresa nueva contraseÃ±a" style="html=1;verticalAlign=bottom;endArrow=block;curved=0;rounded=0;exitX=1;exitY=0;exitDx=0;exitDy=5;exitPerimeter=0;fontSize=9;entryX=0;entryY=1;entryDx=0;entryDy=-5;entryPerimeter=0;" parent="1" source="R3Ze9OEiheNbRMXw7LAC-196" target="R3Ze9OEiheNbRMXw7LAC-194" edge="1">
          <mxGeometry x="0.0275" y="5" width="80" relative="1" as="geometry">
            <mxPoint x="1015" y="2810" as="sourcePoint" />
            <mxPoint x="1160" y="2810" as="targetPoint" />
            <mxPoint as="offset" />
          </mxGeometry>
        </mxCell>
        <mxCell id="R3Ze9OEiheNbRMXw7LAC-200" value="Enviar nueva contraseÃ±a" style="html=1;verticalAlign=bottom;endArrow=block;curved=0;rounded=0;fontSize=9;entryX=0;entryY=0;entryDx=0;entryDy=5;entryPerimeter=0;exitX=1;exitY=0;exitDx=0;exitDy=5;exitPerimeter=0;" parent="1" source="R3Ze9OEiheNbRMXw7LAC-198" target="R3Ze9OEiheNbRMXw7LAC-201" edge="1">
          <mxGeometry x="0.0275" y="5" width="80" relative="1" as="geometry">
            <mxPoint x="1295" y="2930" as="sourcePoint" />
            <mxPoint x="1210" y="2950" as="targetPoint" />
            <mxPoint as="offset" />
          </mxGeometry>
        </mxCell>
        <mxCell id="R3Ze9OEiheNbRMXw7LAC-202" value="Actualizar contraseÃ±a" style="html=1;verticalAlign=bottom;endArrow=block;curved=0;rounded=0;fontSize=9;entryX=0;entryY=0;entryDx=0;entryDy=5;entryPerimeter=0;exitX=1;exitY=1;exitDx=0;exitDy=-5;exitPerimeter=0;" parent="1" source="R3Ze9OEiheNbRMXw7LAC-201" target="R3Ze9OEiheNbRMXw7LAC-199" edge="1">
          <mxGeometry x="0.0275" y="5" width="80" relative="1" as="geometry">
            <mxPoint x="1175" y="2940" as="sourcePoint" />
            <mxPoint x="1325" y="2940" as="targetPoint" />
            <mxPoint as="offset" />
          </mxGeometry>
        </mxCell>
        <mxCell id="R3Ze9OEiheNbRMXw7LAC-204" value="Mensaje de exito" style="html=1;verticalAlign=bottom;endArrow=open;dashed=1;endSize=8;curved=0;rounded=0;exitX=0;exitY=1;exitDx=0;exitDy=-5;exitPerimeter=0;entryX=1;entryY=1;entryDx=0;entryDy=-5;entryPerimeter=0;fontSize=9;" parent="1" source="R3Ze9OEiheNbRMXw7LAC-203" target="R3Ze9OEiheNbRMXw7LAC-198" edge="1">
          <mxGeometry relative="1" as="geometry">
            <mxPoint x="1645" y="2901" as="sourcePoint" />
            <mxPoint x="1315" y="2900" as="targetPoint" />
          </mxGeometry>
        </mxCell>
        <mxCell id="R3Ze9OEiheNbRMXw7LAC-205" value="Token no valido" style="html=1;verticalAlign=bottom;endArrow=open;dashed=1;endSize=8;curved=0;rounded=0;exitX=0;exitY=1;exitDx=0;exitDy=-5;exitPerimeter=0;entryX=1;entryY=0;entryDx=0;entryDy=5;entryPerimeter=0;fontSize=9;" parent="1" source="R3Ze9OEiheNbRMXw7LAC-199" target="R3Ze9OEiheNbRMXw7LAC-206" edge="1">
          <mxGeometry relative="1" as="geometry">
            <mxPoint x="1325" y="2980" as="sourcePoint" />
            <mxPoint x="1175" y="2980" as="targetPoint" />
          </mxGeometry>
        </mxCell>
        <mxCell id="R3Ze9OEiheNbRMXw7LAC-208" value="Mostrar error" style="html=1;verticalAlign=bottom;endArrow=open;dashed=1;endSize=8;curved=0;rounded=0;exitX=0;exitY=1;exitDx=0;exitDy=-5;exitPerimeter=0;entryX=1;entryY=0;entryDx=0;entryDy=5;entryPerimeter=0;fontSize=9;" parent="1" source="R3Ze9OEiheNbRMXw7LAC-206" target="R3Ze9OEiheNbRMXw7LAC-207" edge="1">
          <mxGeometry relative="1" as="geometry">
            <mxPoint x="1715" y="3050" as="sourcePoint" />
            <mxPoint x="1385" y="3050" as="targetPoint" />
          </mxGeometry>
        </mxCell>
        <mxCell id="R3Ze9OEiheNbRMXw7LAC-211" value="" style="html=1;points=[[0,0,0,0,5],[0,1,0,0,-5],[1,0,0,0,5],[1,1,0,0,-5]];perimeter=orthogonalPerimeter;outlineConnect=0;targetShapes=umlLifeline;portConstraint=eastwest;newEdgeStyle={&quot;curved&quot;:0,&quot;rounded&quot;:0};" parent="1" vertex="1">
          <mxGeometry x="1565" y="2570" width="11" height="530" as="geometry" />
        </mxCell>
        <mxCell id="Jm0r5_DeOLN-2_xh7fez-1" value="" style="rounded=0;whiteSpace=wrap;html=1;labelBackgroundColor=none;" vertex="1" parent="1">
          <mxGeometry x="836" y="3203" width="800" height="287" as="geometry" />
        </mxCell>
        <mxCell id="Jm0r5_DeOLN-2_xh7fez-2" value="VER LECCIONES DISPONIBLES" style="rounded=0;whiteSpace=wrap;html=1;labelBackgroundColor=none;" vertex="1" parent="1">
          <mxGeometry x="1072" y="3160" width="320" height="60" as="geometry" />
        </mxCell>
        <mxCell id="Jm0r5_DeOLN-2_xh7fez-3" value="Usuario" style="shape=umlLifeline;perimeter=lifelinePerimeter;whiteSpace=wrap;html=1;container=1;dropTarget=0;collapsible=0;recursiveResize=0;outlineConnect=0;portConstraint=eastwest;newEdgeStyle={&quot;curved&quot;:0,&quot;rounded&quot;:0};participant=umlActor;size=70;labelBackgroundColor=none;" vertex="1" parent="1">
          <mxGeometry x="881" y="3233" width="50" height="257" as="geometry" />
        </mxCell>
        <mxCell id="Jm0r5_DeOLN-2_xh7fez-30" value="" style="html=1;points=[[0,0,0,0,5],[0,1,0,0,-5],[1,0,0,0,5],[1,1,0,0,-5]];perimeter=orthogonalPerimeter;outlineConnect=0;targetShapes=umlLifeline;portConstraint=eastwest;newEdgeStyle={&quot;curved&quot;:0,&quot;rounded&quot;:0};" vertex="1" parent="Jm0r5_DeOLN-2_xh7fez-3">
          <mxGeometry x="20" y="107" width="10" height="143" as="geometry" />
        </mxCell>
        <mxCell id="Jm0r5_DeOLN-2_xh7fez-7" value=":UI" style="shape=umlLifeline;perimeter=lifelinePerimeter;whiteSpace=wrap;html=1;container=1;dropTarget=0;collapsible=0;recursiveResize=0;outlineConnect=0;portConstraint=eastwest;newEdgeStyle={&quot;curved&quot;:0,&quot;rounded&quot;:0};participant=umlBoundary;size=60;align=center;labelBackgroundColor=none;" vertex="1" parent="1">
          <mxGeometry x="1061.26" y="3236.5" width="80" height="253.5" as="geometry" />
        </mxCell>
        <mxCell id="Jm0r5_DeOLN-2_xh7fez-29" value="" style="html=1;points=[[0,0,0,0,5],[0,1,0,0,-5],[1,0,0,0,5],[1,1,0,0,-5]];perimeter=orthogonalPerimeter;outlineConnect=0;targetShapes=umlLifeline;portConstraint=eastwest;newEdgeStyle={&quot;curved&quot;:0,&quot;rounded&quot;:0};" vertex="1" parent="Jm0r5_DeOLN-2_xh7fez-7">
          <mxGeometry x="35" y="103.5" width="10" height="36.5" as="geometry" />
        </mxCell>
        <mxCell id="Jm0r5_DeOLN-2_xh7fez-37" value="" style="html=1;points=[[0,0,0,0,5],[0,1,0,0,-5],[1,0,0,0,5],[1,1,0,0,-5]];perimeter=orthogonalPerimeter;outlineConnect=0;targetShapes=umlLifeline;portConstraint=eastwest;newEdgeStyle={&quot;curved&quot;:0,&quot;rounded&quot;:0};" vertex="1" parent="Jm0r5_DeOLN-2_xh7fez-7">
          <mxGeometry x="35" y="203.5" width="10" height="36.5" as="geometry" />
        </mxCell>
        <mxCell id="Jm0r5_DeOLN-2_xh7fez-41" value="" style="html=1;points=[[0,0,0,0,5],[0,1,0,0,-5],[1,0,0,0,5],[1,1,0,0,-5]];perimeter=orthogonalPerimeter;outlineConnect=0;targetShapes=umlLifeline;portConstraint=eastwest;newEdgeStyle={&quot;curved&quot;:0,&quot;rounded&quot;:0};" vertex="1" parent="Jm0r5_DeOLN-2_xh7fez-7">
          <mxGeometry x="35" y="103.5" width="10" height="136.5" as="geometry" />
        </mxCell>
        <mxCell id="Jm0r5_DeOLN-2_xh7fez-11" value=":AppServer" style="shape=umlLifeline;perimeter=lifelinePerimeter;whiteSpace=wrap;html=1;container=1;dropTarget=0;collapsible=0;recursiveResize=0;outlineConnect=0;portConstraint=eastwest;newEdgeStyle={&quot;curved&quot;:0,&quot;rounded&quot;:0};labelBackgroundColor=none;" vertex="1" parent="1">
          <mxGeometry x="1286.26" y="3240" width="100" height="250" as="geometry" />
        </mxCell>
        <mxCell id="Jm0r5_DeOLN-2_xh7fez-31" value="" style="html=1;points=[[0,0,0,0,5],[0,1,0,0,-5],[1,0,0,0,5],[1,1,0,0,-5]];perimeter=orthogonalPerimeter;outlineConnect=0;targetShapes=umlLifeline;portConstraint=eastwest;newEdgeStyle={&quot;curved&quot;:0,&quot;rounded&quot;:0};" vertex="1" parent="Jm0r5_DeOLN-2_xh7fez-11">
          <mxGeometry x="45" y="126.5" width="10" height="43.5" as="geometry" />
        </mxCell>
        <mxCell id="Jm0r5_DeOLN-2_xh7fez-35" value="" style="html=1;points=[[0,0,0,0,5],[0,1,0,0,-5],[1,0,0,0,5],[1,1,0,0,-5]];perimeter=orthogonalPerimeter;outlineConnect=0;targetShapes=umlLifeline;portConstraint=eastwest;newEdgeStyle={&quot;curved&quot;:0,&quot;rounded&quot;:0};" vertex="1" parent="Jm0r5_DeOLN-2_xh7fez-11">
          <mxGeometry x="45" y="180" width="10" height="30" as="geometry" />
        </mxCell>
        <mxCell id="Jm0r5_DeOLN-2_xh7fez-40" value="" style="html=1;points=[[0,0,0,0,5],[0,1,0,0,-5],[1,0,0,0,5],[1,1,0,0,-5]];perimeter=orthogonalPerimeter;outlineConnect=0;targetShapes=umlLifeline;portConstraint=eastwest;newEdgeStyle={&quot;curved&quot;:0,&quot;rounded&quot;:0};" vertex="1" parent="Jm0r5_DeOLN-2_xh7fez-11">
          <mxGeometry x="45" y="126.5" width="10" height="93.5" as="geometry" />
        </mxCell>
        <mxCell id="Jm0r5_DeOLN-2_xh7fez-19" value="BD:LinuxLearn" style="shape=umlLifeline;perimeter=lifelinePerimeter;whiteSpace=wrap;html=1;container=1;dropTarget=0;collapsible=0;recursiveResize=0;outlineConnect=0;portConstraint=eastwest;newEdgeStyle={&quot;curved&quot;:0,&quot;rounded&quot;:0};participant=umlEntity;size=60;labelBackgroundColor=none;" vertex="1" parent="1">
          <mxGeometry x="1512.26" y="3220" width="80" height="270" as="geometry" />
        </mxCell>
        <mxCell id="Jm0r5_DeOLN-2_xh7fez-34" value="" style="html=1;points=[[0,0,0,0,5],[0,1,0,0,-5],[1,0,0,0,5],[1,1,0,0,-5]];perimeter=orthogonalPerimeter;outlineConnect=0;targetShapes=umlLifeline;portConstraint=eastwest;newEdgeStyle={&quot;curved&quot;:0,&quot;rounded&quot;:0};" vertex="1" parent="Jm0r5_DeOLN-2_xh7fez-19">
          <mxGeometry x="35" y="180" width="10" height="30" as="geometry" />
        </mxCell>
        <mxCell id="Jm0r5_DeOLN-2_xh7fez-28" value="Click en home" style="html=1;verticalAlign=bottom;endArrow=block;curved=0;rounded=0;exitX=1;exitY=0;exitDx=0;exitDy=5;exitPerimeter=0;entryX=0;entryY=0;entryDx=0;entryDy=5;entryPerimeter=0;" edge="1" parent="1" source="Jm0r5_DeOLN-2_xh7fez-30" target="Jm0r5_DeOLN-2_xh7fez-29">
          <mxGeometry width="80" relative="1" as="geometry">
            <mxPoint x="905.8235294117646" y="3370" as="sourcePoint" />
            <mxPoint x="1101.26" y="3370" as="targetPoint" />
          </mxGeometry>
        </mxCell>
        <mxCell id="Jm0r5_DeOLN-2_xh7fez-32" value="Solicita lista de lecciones disponibles" style="html=1;verticalAlign=bottom;endArrow=block;curved=0;rounded=0;exitX=1;exitY=1;exitDx=0;exitDy=-5;exitPerimeter=0;entryX=0;entryY=0;entryDx=0;entryDy=5;entryPerimeter=0;" edge="1" parent="1" source="Jm0r5_DeOLN-2_xh7fez-29" target="Jm0r5_DeOLN-2_xh7fez-31">
          <mxGeometry width="80" relative="1" as="geometry">
            <mxPoint x="1286.26" y="3520" as="sourcePoint" />
            <mxPoint x="1366.26" y="3520" as="targetPoint" />
          </mxGeometry>
        </mxCell>
        <mxCell id="Jm0r5_DeOLN-2_xh7fez-33" value="Busca lecciones disponibles&amp;nbsp;&lt;div&gt;del usuario&lt;/div&gt;" style="html=1;verticalAlign=bottom;endArrow=block;curved=0;rounded=0;exitX=1;exitY=1;exitDx=0;exitDy=-5;exitPerimeter=0;" edge="1" parent="1" source="Jm0r5_DeOLN-2_xh7fez-31" target="Jm0r5_DeOLN-2_xh7fez-34">
          <mxGeometry width="80" relative="1" as="geometry">
            <mxPoint x="1286.26" y="3520" as="sourcePoint" />
            <mxPoint x="1366.26" y="3520" as="targetPoint" />
          </mxGeometry>
        </mxCell>
        <mxCell id="Jm0r5_DeOLN-2_xh7fez-36" value="Devuelve las lecciones disponibles" style="html=1;verticalAlign=bottom;endArrow=open;dashed=1;endSize=8;curved=0;rounded=0;exitX=0;exitY=1;exitDx=0;exitDy=-5;exitPerimeter=0;entryX=1;entryY=0;entryDx=0;entryDy=5;entryPerimeter=0;" edge="1" parent="1" source="Jm0r5_DeOLN-2_xh7fez-34" target="Jm0r5_DeOLN-2_xh7fez-35">
          <mxGeometry relative="1" as="geometry">
            <mxPoint x="1366.26" y="3520" as="sourcePoint" />
            <mxPoint x="1286.26" y="3520" as="targetPoint" />
          </mxGeometry>
        </mxCell>
        <mxCell id="Jm0r5_DeOLN-2_xh7fez-38" value="Muestra lecciones disponibles" style="html=1;verticalAlign=bottom;endArrow=open;dashed=1;endSize=8;curved=0;rounded=0;entryX=1;entryY=0;entryDx=0;entryDy=5;entryPerimeter=0;exitX=0;exitY=1;exitDx=0;exitDy=-5;exitPerimeter=0;" edge="1" parent="1" source="Jm0r5_DeOLN-2_xh7fez-35" target="Jm0r5_DeOLN-2_xh7fez-37">
          <mxGeometry relative="1" as="geometry">
            <mxPoint x="1366.26" y="3520" as="sourcePoint" />
            <mxPoint x="1286.26" y="3520" as="targetPoint" />
          </mxGeometry>
        </mxCell>
        <mxCell id="Jm0r5_DeOLN-2_xh7fez-42" value="" style="rounded=0;whiteSpace=wrap;html=1;labelBackgroundColor=none;" vertex="1" parent="1">
          <mxGeometry x="845" y="3583" width="800" height="287" as="geometry" />
        </mxCell>
        <mxCell id="Jm0r5_DeOLN-2_xh7fez-43" value="ENTRAR A LECCION" style="rounded=0;whiteSpace=wrap;html=1;labelBackgroundColor=none;" vertex="1" parent="1">
          <mxGeometry x="1081" y="3540" width="320" height="60" as="geometry" />
        </mxCell>
        <mxCell id="Jm0r5_DeOLN-2_xh7fez-44" value="Usuario" style="shape=umlLifeline;perimeter=lifelinePerimeter;whiteSpace=wrap;html=1;container=1;dropTarget=0;collapsible=0;recursiveResize=0;outlineConnect=0;portConstraint=eastwest;newEdgeStyle={&quot;curved&quot;:0,&quot;rounded&quot;:0};participant=umlActor;size=70;labelBackgroundColor=none;" vertex="1" parent="1">
          <mxGeometry x="890" y="3613" width="50" height="257" as="geometry" />
        </mxCell>
        <mxCell id="Jm0r5_DeOLN-2_xh7fez-45" value="" style="html=1;points=[[0,0,0,0,5],[0,1,0,0,-5],[1,0,0,0,5],[1,1,0,0,-5]];perimeter=orthogonalPerimeter;outlineConnect=0;targetShapes=umlLifeline;portConstraint=eastwest;newEdgeStyle={&quot;curved&quot;:0,&quot;rounded&quot;:0};" vertex="1" parent="Jm0r5_DeOLN-2_xh7fez-44">
          <mxGeometry x="20" y="107" width="10" height="143" as="geometry" />
        </mxCell>
        <mxCell id="Jm0r5_DeOLN-2_xh7fez-46" value=":UI" style="shape=umlLifeline;perimeter=lifelinePerimeter;whiteSpace=wrap;html=1;container=1;dropTarget=0;collapsible=0;recursiveResize=0;outlineConnect=0;portConstraint=eastwest;newEdgeStyle={&quot;curved&quot;:0,&quot;rounded&quot;:0};participant=umlBoundary;size=60;align=center;labelBackgroundColor=none;" vertex="1" parent="1">
          <mxGeometry x="1070.26" y="3616.5" width="80" height="253.5" as="geometry" />
        </mxCell>
        <mxCell id="Jm0r5_DeOLN-2_xh7fez-47" value="" style="html=1;points=[[0,0,0,0,5],[0,1,0,0,-5],[1,0,0,0,5],[1,1,0,0,-5]];perimeter=orthogonalPerimeter;outlineConnect=0;targetShapes=umlLifeline;portConstraint=eastwest;newEdgeStyle={&quot;curved&quot;:0,&quot;rounded&quot;:0};" vertex="1" parent="Jm0r5_DeOLN-2_xh7fez-46">
          <mxGeometry x="35" y="103.5" width="10" height="36.5" as="geometry" />
        </mxCell>
        <mxCell id="Jm0r5_DeOLN-2_xh7fez-48" value="" style="html=1;points=[[0,0,0,0,5],[0,1,0,0,-5],[1,0,0,0,5],[1,1,0,0,-5]];perimeter=orthogonalPerimeter;outlineConnect=0;targetShapes=umlLifeline;portConstraint=eastwest;newEdgeStyle={&quot;curved&quot;:0,&quot;rounded&quot;:0};" vertex="1" parent="Jm0r5_DeOLN-2_xh7fez-46">
          <mxGeometry x="35" y="203.5" width="10" height="36.5" as="geometry" />
        </mxCell>
        <mxCell id="Jm0r5_DeOLN-2_xh7fez-49" value="" style="html=1;points=[[0,0,0,0,5],[0,1,0,0,-5],[1,0,0,0,5],[1,1,0,0,-5]];perimeter=orthogonalPerimeter;outlineConnect=0;targetShapes=umlLifeline;portConstraint=eastwest;newEdgeStyle={&quot;curved&quot;:0,&quot;rounded&quot;:0};" vertex="1" parent="Jm0r5_DeOLN-2_xh7fez-46">
          <mxGeometry x="35" y="103.5" width="10" height="136.5" as="geometry" />
        </mxCell>
        <mxCell id="Jm0r5_DeOLN-2_xh7fez-50" value=":AppServer" style="shape=umlLifeline;perimeter=lifelinePerimeter;whiteSpace=wrap;html=1;container=1;dropTarget=0;collapsible=0;recursiveResize=0;outlineConnect=0;portConstraint=eastwest;newEdgeStyle={&quot;curved&quot;:0,&quot;rounded&quot;:0};labelBackgroundColor=none;" vertex="1" parent="1">
          <mxGeometry x="1295.26" y="3620" width="100" height="250" as="geometry" />
        </mxCell>
        <mxCell id="Jm0r5_DeOLN-2_xh7fez-51" value="" style="html=1;points=[[0,0,0,0,5],[0,1,0,0,-5],[1,0,0,0,5],[1,1,0,0,-5]];perimeter=orthogonalPerimeter;outlineConnect=0;targetShapes=umlLifeline;portConstraint=eastwest;newEdgeStyle={&quot;curved&quot;:0,&quot;rounded&quot;:0};" vertex="1" parent="Jm0r5_DeOLN-2_xh7fez-50">
          <mxGeometry x="45" y="126.5" width="10" height="43.5" as="geometry" />
        </mxCell>
        <mxCell id="Jm0r5_DeOLN-2_xh7fez-52" value="" style="html=1;points=[[0,0,0,0,5],[0,1,0,0,-5],[1,0,0,0,5],[1,1,0,0,-5]];perimeter=orthogonalPerimeter;outlineConnect=0;targetShapes=umlLifeline;portConstraint=eastwest;newEdgeStyle={&quot;curved&quot;:0,&quot;rounded&quot;:0};" vertex="1" parent="Jm0r5_DeOLN-2_xh7fez-50">
          <mxGeometry x="45" y="180" width="10" height="30" as="geometry" />
        </mxCell>
        <mxCell id="Jm0r5_DeOLN-2_xh7fez-53" value="" style="html=1;points=[[0,0,0,0,5],[0,1,0,0,-5],[1,0,0,0,5],[1,1,0,0,-5]];perimeter=orthogonalPerimeter;outlineConnect=0;targetShapes=umlLifeline;portConstraint=eastwest;newEdgeStyle={&quot;curved&quot;:0,&quot;rounded&quot;:0};" vertex="1" parent="Jm0r5_DeOLN-2_xh7fez-50">
          <mxGeometry x="45" y="126.5" width="10" height="93.5" as="geometry" />
        </mxCell>
        <mxCell id="Jm0r5_DeOLN-2_xh7fez-54" value="BD:LinuxLearn" style="shape=umlLifeline;perimeter=lifelinePerimeter;whiteSpace=wrap;html=1;container=1;dropTarget=0;collapsible=0;recursiveResize=0;outlineConnect=0;portConstraint=eastwest;newEdgeStyle={&quot;curved&quot;:0,&quot;rounded&quot;:0};participant=umlEntity;size=60;labelBackgroundColor=none;" vertex="1" parent="1">
          <mxGeometry x="1521.26" y="3600" width="80" height="270" as="geometry" />
        </mxCell>
        <mxCell id="Jm0r5_DeOLN-2_xh7fez-55" value="" style="html=1;points=[[0,0,0,0,5],[0,1,0,0,-5],[1,0,0,0,5],[1,1,0,0,-5]];perimeter=orthogonalPerimeter;outlineConnect=0;targetShapes=umlLifeline;portConstraint=eastwest;newEdgeStyle={&quot;curved&quot;:0,&quot;rounded&quot;:0};" vertex="1" parent="Jm0r5_DeOLN-2_xh7fez-54">
          <mxGeometry x="35" y="180" width="10" height="30" as="geometry" />
        </mxCell>
        <mxCell id="Jm0r5_DeOLN-2_xh7fez-56" value="Click en lecciÃ³n x" style="html=1;verticalAlign=bottom;endArrow=block;curved=0;rounded=0;exitX=1;exitY=0;exitDx=0;exitDy=5;exitPerimeter=0;entryX=0;entryY=0;entryDx=0;entryDy=5;entryPerimeter=0;" edge="1" parent="1" source="Jm0r5_DeOLN-2_xh7fez-45" target="Jm0r5_DeOLN-2_xh7fez-47">
          <mxGeometry width="80" relative="1" as="geometry">
            <mxPoint x="914.8235294117646" y="3750" as="sourcePoint" />
            <mxPoint x="1110.26" y="3750" as="targetPoint" />
          </mxGeometry>
        </mxCell>
        <mxCell id="Jm0r5_DeOLN-2_xh7fez-57" value="Solicita datos de la leccion" style="html=1;verticalAlign=bottom;endArrow=block;curved=0;rounded=0;exitX=1;exitY=1;exitDx=0;exitDy=-5;exitPerimeter=0;entryX=0;entryY=0;entryDx=0;entryDy=5;entryPerimeter=0;" edge="1" parent="1" source="Jm0r5_DeOLN-2_xh7fez-47" target="Jm0r5_DeOLN-2_xh7fez-51">
          <mxGeometry width="80" relative="1" as="geometry">
            <mxPoint x="1295.26" y="3900" as="sourcePoint" />
            <mxPoint x="1375.26" y="3900" as="targetPoint" />
          </mxGeometry>
        </mxCell>
        <mxCell id="Jm0r5_DeOLN-2_xh7fez-58" value="Busca los datos de la leccion" style="html=1;verticalAlign=bottom;endArrow=block;curved=0;rounded=0;exitX=1;exitY=1;exitDx=0;exitDy=-5;exitPerimeter=0;" edge="1" parent="1" source="Jm0r5_DeOLN-2_xh7fez-51" target="Jm0r5_DeOLN-2_xh7fez-55">
          <mxGeometry width="80" relative="1" as="geometry">
            <mxPoint x="1295.26" y="3900" as="sourcePoint" />
            <mxPoint x="1375.26" y="3900" as="targetPoint" />
          </mxGeometry>
        </mxCell>
        <mxCell id="Jm0r5_DeOLN-2_xh7fez-59" value="Devuelve los datos de la leccion" style="html=1;verticalAlign=bottom;endArrow=open;dashed=1;endSize=8;curved=0;rounded=0;exitX=0;exitY=1;exitDx=0;exitDy=-5;exitPerimeter=0;entryX=1;entryY=0;entryDx=0;entryDy=5;entryPerimeter=0;" edge="1" parent="1" source="Jm0r5_DeOLN-2_xh7fez-55" target="Jm0r5_DeOLN-2_xh7fez-52">
          <mxGeometry relative="1" as="geometry">
            <mxPoint x="1375.26" y="3900" as="sourcePoint" />
            <mxPoint x="1295.26" y="3900" as="targetPoint" />
          </mxGeometry>
        </mxCell>
        <mxCell id="Jm0r5_DeOLN-2_xh7fez-60" value="Muestra la leccion" style="html=1;verticalAlign=bottom;endArrow=open;dashed=1;endSize=8;curved=0;rounded=0;entryX=1;entryY=0;entryDx=0;entryDy=5;entryPerimeter=0;exitX=0;exitY=1;exitDx=0;exitDy=-5;exitPerimeter=0;" edge="1" parent="1" source="Jm0r5_DeOLN-2_xh7fez-52" target="Jm0r5_DeOLN-2_xh7fez-48">
          <mxGeometry relative="1" as="geometry">
            <mxPoint x="1375.26" y="3900" as="sourcePoint" />
            <mxPoint x="1295.26" y="3900" as="targetPoint" />
          </mxGeometry>
        </mxCell>
        <mxCell id="Jm0r5_DeOLN-2_xh7fez-61" value="" style="rounded=0;whiteSpace=wrap;html=1;labelBackgroundColor=none;" vertex="1" parent="1">
          <mxGeometry x="845" y="3933" width="800" height="287" as="geometry" />
        </mxCell>
        <mxCell id="Jm0r5_DeOLN-2_xh7fez-62" value="ENTRAR A RANKING" style="rounded=0;whiteSpace=wrap;html=1;labelBackgroundColor=none;" vertex="1" parent="1">
          <mxGeometry x="1081" y="3890" width="320" height="60" as="geometry" />
        </mxCell>
        <mxCell id="Jm0r5_DeOLN-2_xh7fez-63" value="Usuario" style="shape=umlLifeline;perimeter=lifelinePerimeter;whiteSpace=wrap;html=1;container=1;dropTarget=0;collapsible=0;recursiveResize=0;outlineConnect=0;portConstraint=eastwest;newEdgeStyle={&quot;curved&quot;:0,&quot;rounded&quot;:0};participant=umlActor;size=70;labelBackgroundColor=none;" vertex="1" parent="1">
          <mxGeometry x="890" y="3963" width="50" height="257" as="geometry" />
        </mxCell>
        <mxCell id="Jm0r5_DeOLN-2_xh7fez-64" value="" style="html=1;points=[[0,0,0,0,5],[0,1,0,0,-5],[1,0,0,0,5],[1,1,0,0,-5]];perimeter=orthogonalPerimeter;outlineConnect=0;targetShapes=umlLifeline;portConstraint=eastwest;newEdgeStyle={&quot;curved&quot;:0,&quot;rounded&quot;:0};" vertex="1" parent="Jm0r5_DeOLN-2_xh7fez-63">
          <mxGeometry x="20" y="107" width="10" height="143" as="geometry" />
        </mxCell>
        <mxCell id="Jm0r5_DeOLN-2_xh7fez-65" value=":UI" style="shape=umlLifeline;perimeter=lifelinePerimeter;whiteSpace=wrap;html=1;container=1;dropTarget=0;collapsible=0;recursiveResize=0;outlineConnect=0;portConstraint=eastwest;newEdgeStyle={&quot;curved&quot;:0,&quot;rounded&quot;:0};participant=umlBoundary;size=60;align=center;labelBackgroundColor=none;" vertex="1" parent="1">
          <mxGeometry x="1070.26" y="3966.5" width="80" height="253.5" as="geometry" />
        </mxCell>
        <mxCell id="Jm0r5_DeOLN-2_xh7fez-66" value="" style="html=1;points=[[0,0,0,0,5],[0,1,0,0,-5],[1,0,0,0,5],[1,1,0,0,-5]];perimeter=orthogonalPerimeter;outlineConnect=0;targetShapes=umlLifeline;portConstraint=eastwest;newEdgeStyle={&quot;curved&quot;:0,&quot;rounded&quot;:0};" vertex="1" parent="Jm0r5_DeOLN-2_xh7fez-65">
          <mxGeometry x="35" y="103.5" width="10" height="36.5" as="geometry" />
        </mxCell>
        <mxCell id="Jm0r5_DeOLN-2_xh7fez-67" value="" style="html=1;points=[[0,0,0,0,5],[0,1,0,0,-5],[1,0,0,0,5],[1,1,0,0,-5]];perimeter=orthogonalPerimeter;outlineConnect=0;targetShapes=umlLifeline;portConstraint=eastwest;newEdgeStyle={&quot;curved&quot;:0,&quot;rounded&quot;:0};" vertex="1" parent="Jm0r5_DeOLN-2_xh7fez-65">
          <mxGeometry x="35" y="203.5" width="10" height="36.5" as="geometry" />
        </mxCell>
        <mxCell id="Jm0r5_DeOLN-2_xh7fez-68" value="" style="html=1;points=[[0,0,0,0,5],[0,1,0,0,-5],[1,0,0,0,5],[1,1,0,0,-5]];perimeter=orthogonalPerimeter;outlineConnect=0;targetShapes=umlLifeline;portConstraint=eastwest;newEdgeStyle={&quot;curved&quot;:0,&quot;rounded&quot;:0};" vertex="1" parent="Jm0r5_DeOLN-2_xh7fez-65">
          <mxGeometry x="35" y="103.5" width="10" height="136.5" as="geometry" />
        </mxCell>
        <mxCell id="Jm0r5_DeOLN-2_xh7fez-69" value=":AppServer" style="shape=umlLifeline;perimeter=lifelinePerimeter;whiteSpace=wrap;html=1;container=1;dropTarget=0;collapsible=0;recursiveResize=0;outlineConnect=0;portConstraint=eastwest;newEdgeStyle={&quot;curved&quot;:0,&quot;rounded&quot;:0};labelBackgroundColor=none;" vertex="1" parent="1">
          <mxGeometry x="1295.2600000000002" y="3970" width="100" height="250" as="geometry" />
        </mxCell>
        <mxCell id="Jm0r5_DeOLN-2_xh7fez-70" value="" style="html=1;points=[[0,0,0,0,5],[0,1,0,0,-5],[1,0,0,0,5],[1,1,0,0,-5]];perimeter=orthogonalPerimeter;outlineConnect=0;targetShapes=umlLifeline;portConstraint=eastwest;newEdgeStyle={&quot;curved&quot;:0,&quot;rounded&quot;:0};" vertex="1" parent="Jm0r5_DeOLN-2_xh7fez-69">
          <mxGeometry x="45" y="126.5" width="10" height="43.5" as="geometry" />
        </mxCell>
        <mxCell id="Jm0r5_DeOLN-2_xh7fez-71" value="" style="html=1;points=[[0,0,0,0,5],[0,1,0,0,-5],[1,0,0,0,5],[1,1,0,0,-5]];perimeter=orthogonalPerimeter;outlineConnect=0;targetShapes=umlLifeline;portConstraint=eastwest;newEdgeStyle={&quot;curved&quot;:0,&quot;rounded&quot;:0};" vertex="1" parent="Jm0r5_DeOLN-2_xh7fez-69">
          <mxGeometry x="45" y="180" width="10" height="30" as="geometry" />
        </mxCell>
        <mxCell id="Jm0r5_DeOLN-2_xh7fez-72" value="" style="html=1;points=[[0,0,0,0,5],[0,1,0,0,-5],[1,0,0,0,5],[1,1,0,0,-5]];perimeter=orthogonalPerimeter;outlineConnect=0;targetShapes=umlLifeline;portConstraint=eastwest;newEdgeStyle={&quot;curved&quot;:0,&quot;rounded&quot;:0};" vertex="1" parent="Jm0r5_DeOLN-2_xh7fez-69">
          <mxGeometry x="45" y="126.5" width="10" height="93.5" as="geometry" />
        </mxCell>
        <mxCell id="Jm0r5_DeOLN-2_xh7fez-73" value="BD:LinuxLearn" style="shape=umlLifeline;perimeter=lifelinePerimeter;whiteSpace=wrap;html=1;container=1;dropTarget=0;collapsible=0;recursiveResize=0;outlineConnect=0;portConstraint=eastwest;newEdgeStyle={&quot;curved&quot;:0,&quot;rounded&quot;:0};participant=umlEntity;size=60;labelBackgroundColor=none;" vertex="1" parent="1">
          <mxGeometry x="1521.2600000000002" y="3950" width="80" height="270" as="geometry" />
        </mxCell>
        <mxCell id="Jm0r5_DeOLN-2_xh7fez-74" value="" style="html=1;points=[[0,0,0,0,5],[0,1,0,0,-5],[1,0,0,0,5],[1,1,0,0,-5]];perimeter=orthogonalPerimeter;outlineConnect=0;targetShapes=umlLifeline;portConstraint=eastwest;newEdgeStyle={&quot;curved&quot;:0,&quot;rounded&quot;:0};" vertex="1" parent="Jm0r5_DeOLN-2_xh7fez-73">
          <mxGeometry x="35" y="180" width="10" height="30" as="geometry" />
        </mxCell>
        <mxCell id="Jm0r5_DeOLN-2_xh7fez-75" value="Click en ranking" style="html=1;verticalAlign=bottom;endArrow=block;curved=0;rounded=0;exitX=1;exitY=0;exitDx=0;exitDy=5;exitPerimeter=0;entryX=0;entryY=0;entryDx=0;entryDy=5;entryPerimeter=0;" edge="1" parent="1" source="Jm0r5_DeOLN-2_xh7fez-64" target="Jm0r5_DeOLN-2_xh7fez-66">
          <mxGeometry width="80" relative="1" as="geometry">
            <mxPoint x="914.8235294117646" y="4100" as="sourcePoint" />
            <mxPoint x="1110.26" y="4100" as="targetPoint" />
          </mxGeometry>
        </mxCell>
        <mxCell id="Jm0r5_DeOLN-2_xh7fez-76" value="Solicita lista de usuarios del ranking" style="html=1;verticalAlign=bottom;endArrow=block;curved=0;rounded=0;exitX=1;exitY=1;exitDx=0;exitDy=-5;exitPerimeter=0;entryX=0;entryY=0;entryDx=0;entryDy=5;entryPerimeter=0;" edge="1" parent="1" source="Jm0r5_DeOLN-2_xh7fez-66" target="Jm0r5_DeOLN-2_xh7fez-70">
          <mxGeometry width="80" relative="1" as="geometry">
            <mxPoint x="1295.2600000000002" y="4250" as="sourcePoint" />
            <mxPoint x="1375.2600000000002" y="4250" as="targetPoint" />
          </mxGeometry>
        </mxCell>
        <mxCell id="Jm0r5_DeOLN-2_xh7fez-77" value="Busca los usuarios ordenados por exp" style="html=1;verticalAlign=bottom;endArrow=block;curved=0;rounded=0;exitX=1;exitY=1;exitDx=0;exitDy=-5;exitPerimeter=0;" edge="1" parent="1" source="Jm0r5_DeOLN-2_xh7fez-70" target="Jm0r5_DeOLN-2_xh7fez-74">
          <mxGeometry width="80" relative="1" as="geometry">
            <mxPoint x="1295.2600000000002" y="4250" as="sourcePoint" />
            <mxPoint x="1375.2600000000002" y="4250" as="targetPoint" />
          </mxGeometry>
        </mxCell>
        <mxCell id="Jm0r5_DeOLN-2_xh7fez-78" value="Devuelve lista de usuarios" style="html=1;verticalAlign=bottom;endArrow=open;dashed=1;endSize=8;curved=0;rounded=0;exitX=0;exitY=1;exitDx=0;exitDy=-5;exitPerimeter=0;entryX=1;entryY=0;entryDx=0;entryDy=5;entryPerimeter=0;" edge="1" parent="1" source="Jm0r5_DeOLN-2_xh7fez-74" target="Jm0r5_DeOLN-2_xh7fez-71">
          <mxGeometry relative="1" as="geometry">
            <mxPoint x="1375.2600000000002" y="4250" as="sourcePoint" />
            <mxPoint x="1295.2600000000002" y="4250" as="targetPoint" />
          </mxGeometry>
        </mxCell>
        <mxCell id="Jm0r5_DeOLN-2_xh7fez-79" value="Muestra ranking" style="html=1;verticalAlign=bottom;endArrow=open;dashed=1;endSize=8;curved=0;rounded=0;entryX=1;entryY=0;entryDx=0;entryDy=5;entryPerimeter=0;exitX=0;exitY=1;exitDx=0;exitDy=-5;exitPerimeter=0;" edge="1" parent="1" source="Jm0r5_DeOLN-2_xh7fez-71" target="Jm0r5_DeOLN-2_xh7fez-67">
          <mxGeometry relative="1" as="geometry">
            <mxPoint x="1375.2600000000002" y="4250" as="sourcePoint" />
            <mxPoint x="1295.2600000000002" y="4250" as="targetPoint" />
          </mxGeometry>
        </mxCell>
        <mxCell id="Jm0r5_DeOLN-2_xh7fez-80" value="" style="rounded=0;whiteSpace=wrap;html=1;labelBackgroundColor=none;" vertex="1" parent="1">
          <mxGeometry x="840" y="4323" width="800" height="287" as="geometry" />
        </mxCell>
        <mxCell id="Jm0r5_DeOLN-2_xh7fez-81" value="ENTRAR A BIBLIOTECA DE COMANDOS" style="rounded=0;whiteSpace=wrap;html=1;labelBackgroundColor=none;" vertex="1" parent="1">
          <mxGeometry x="1076" y="4280" width="320" height="60" as="geometry" />
        </mxCell>
        <mxCell id="Jm0r5_DeOLN-2_xh7fez-82" value="Usuario" style="shape=umlLifeline;perimeter=lifelinePerimeter;whiteSpace=wrap;html=1;container=1;dropTarget=0;collapsible=0;recursiveResize=0;outlineConnect=0;portConstraint=eastwest;newEdgeStyle={&quot;curved&quot;:0,&quot;rounded&quot;:0};participant=umlActor;size=70;labelBackgroundColor=none;" vertex="1" parent="1">
          <mxGeometry x="885" y="4353" width="50" height="257" as="geometry" />
        </mxCell>
        <mxCell id="Jm0r5_DeOLN-2_xh7fez-83" value="" style="html=1;points=[[0,0,0,0,5],[0,1,0,0,-5],[1,0,0,0,5],[1,1,0,0,-5]];perimeter=orthogonalPerimeter;outlineConnect=0;targetShapes=umlLifeline;portConstraint=eastwest;newEdgeStyle={&quot;curved&quot;:0,&quot;rounded&quot;:0};" vertex="1" parent="Jm0r5_DeOLN-2_xh7fez-82">
          <mxGeometry x="20" y="107" width="10" height="143" as="geometry" />
        </mxCell>
        <mxCell id="Jm0r5_DeOLN-2_xh7fez-84" value=":UI" style="shape=umlLifeline;perimeter=lifelinePerimeter;whiteSpace=wrap;html=1;container=1;dropTarget=0;collapsible=0;recursiveResize=0;outlineConnect=0;portConstraint=eastwest;newEdgeStyle={&quot;curved&quot;:0,&quot;rounded&quot;:0};participant=umlBoundary;size=60;align=center;labelBackgroundColor=none;" vertex="1" parent="1">
          <mxGeometry x="1065.26" y="4356.5" width="80" height="253.5" as="geometry" />
        </mxCell>
        <mxCell id="Jm0r5_DeOLN-2_xh7fez-85" value="" style="html=1;points=[[0,0,0,0,5],[0,1,0,0,-5],[1,0,0,0,5],[1,1,0,0,-5]];perimeter=orthogonalPerimeter;outlineConnect=0;targetShapes=umlLifeline;portConstraint=eastwest;newEdgeStyle={&quot;curved&quot;:0,&quot;rounded&quot;:0};" vertex="1" parent="Jm0r5_DeOLN-2_xh7fez-84">
          <mxGeometry x="35" y="103.5" width="10" height="36.5" as="geometry" />
        </mxCell>
        <mxCell id="Jm0r5_DeOLN-2_xh7fez-86" value="" style="html=1;points=[[0,0,0,0,5],[0,1,0,0,-5],[1,0,0,0,5],[1,1,0,0,-5]];perimeter=orthogonalPerimeter;outlineConnect=0;targetShapes=umlLifeline;portConstraint=eastwest;newEdgeStyle={&quot;curved&quot;:0,&quot;rounded&quot;:0};" vertex="1" parent="Jm0r5_DeOLN-2_xh7fez-84">
          <mxGeometry x="35" y="203.5" width="10" height="36.5" as="geometry" />
        </mxCell>
        <mxCell id="Jm0r5_DeOLN-2_xh7fez-87" value="" style="html=1;points=[[0,0,0,0,5],[0,1,0,0,-5],[1,0,0,0,5],[1,1,0,0,-5]];perimeter=orthogonalPerimeter;outlineConnect=0;targetShapes=umlLifeline;portConstraint=eastwest;newEdgeStyle={&quot;curved&quot;:0,&quot;rounded&quot;:0};" vertex="1" parent="Jm0r5_DeOLN-2_xh7fez-84">
          <mxGeometry x="35" y="103.5" width="10" height="136.5" as="geometry" />
        </mxCell>
        <mxCell id="Jm0r5_DeOLN-2_xh7fez-88" value=":AppServer" style="shape=umlLifeline;perimeter=lifelinePerimeter;whiteSpace=wrap;html=1;container=1;dropTarget=0;collapsible=0;recursiveResize=0;outlineConnect=0;portConstraint=eastwest;newEdgeStyle={&quot;curved&quot;:0,&quot;rounded&quot;:0};labelBackgroundColor=none;" vertex="1" parent="1">
          <mxGeometry x="1290.2600000000002" y="4360" width="100" height="250" as="geometry" />
        </mxCell>
        <mxCell id="Jm0r5_DeOLN-2_xh7fez-89" value="" style="html=1;points=[[0,0,0,0,5],[0,1,0,0,-5],[1,0,0,0,5],[1,1,0,0,-5]];perimeter=orthogonalPerimeter;outlineConnect=0;targetShapes=umlLifeline;portConstraint=eastwest;newEdgeStyle={&quot;curved&quot;:0,&quot;rounded&quot;:0};" vertex="1" parent="Jm0r5_DeOLN-2_xh7fez-88">
          <mxGeometry x="45" y="126.5" width="10" height="43.5" as="geometry" />
        </mxCell>
        <mxCell id="Jm0r5_DeOLN-2_xh7fez-90" value="" style="html=1;points=[[0,0,0,0,5],[0,1,0,0,-5],[1,0,0,0,5],[1,1,0,0,-5]];perimeter=orthogonalPerimeter;outlineConnect=0;targetShapes=umlLifeline;portConstraint=eastwest;newEdgeStyle={&quot;curved&quot;:0,&quot;rounded&quot;:0};" vertex="1" parent="Jm0r5_DeOLN-2_xh7fez-88">
          <mxGeometry x="45" y="180" width="10" height="30" as="geometry" />
        </mxCell>
        <mxCell id="Jm0r5_DeOLN-2_xh7fez-91" value="" style="html=1;points=[[0,0,0,0,5],[0,1,0,0,-5],[1,0,0,0,5],[1,1,0,0,-5]];perimeter=orthogonalPerimeter;outlineConnect=0;targetShapes=umlLifeline;portConstraint=eastwest;newEdgeStyle={&quot;curved&quot;:0,&quot;rounded&quot;:0};" vertex="1" parent="Jm0r5_DeOLN-2_xh7fez-88">
          <mxGeometry x="45" y="126.5" width="10" height="93.5" as="geometry" />
        </mxCell>
        <mxCell id="Jm0r5_DeOLN-2_xh7fez-92" value="BD:LinuxLearn" style="shape=umlLifeline;perimeter=lifelinePerimeter;whiteSpace=wrap;html=1;container=1;dropTarget=0;collapsible=0;recursiveResize=0;outlineConnect=0;portConstraint=eastwest;newEdgeStyle={&quot;curved&quot;:0,&quot;rounded&quot;:0};participant=umlEntity;size=60;labelBackgroundColor=none;" vertex="1" parent="1">
          <mxGeometry x="1516.2600000000002" y="4340" width="80" height="270" as="geometry" />
        </mxCell>
        <mxCell id="Jm0r5_DeOLN-2_xh7fez-93" value="" style="html=1;points=[[0,0,0,0,5],[0,1,0,0,-5],[1,0,0,0,5],[1,1,0,0,-5]];perimeter=orthogonalPerimeter;outlineConnect=0;targetShapes=umlLifeline;portConstraint=eastwest;newEdgeStyle={&quot;curved&quot;:0,&quot;rounded&quot;:0};" vertex="1" parent="Jm0r5_DeOLN-2_xh7fez-92">
          <mxGeometry x="35" y="180" width="10" height="30" as="geometry" />
        </mxCell>
        <mxCell id="Jm0r5_DeOLN-2_xh7fez-94" value="Click en biblioteca" style="html=1;verticalAlign=bottom;endArrow=block;curved=0;rounded=0;exitX=1;exitY=0;exitDx=0;exitDy=5;exitPerimeter=0;entryX=0;entryY=0;entryDx=0;entryDy=5;entryPerimeter=0;" edge="1" parent="1" source="Jm0r5_DeOLN-2_xh7fez-83" target="Jm0r5_DeOLN-2_xh7fez-85">
          <mxGeometry width="80" relative="1" as="geometry">
            <mxPoint x="909.8235294117646" y="4490" as="sourcePoint" />
            <mxPoint x="1105.26" y="4490" as="targetPoint" />
          </mxGeometry>
        </mxCell>
        <mxCell id="Jm0r5_DeOLN-2_xh7fez-95" value="Solicita lista de comandos disponibles" style="html=1;verticalAlign=bottom;endArrow=block;curved=0;rounded=0;exitX=1;exitY=1;exitDx=0;exitDy=-5;exitPerimeter=0;entryX=0;entryY=0;entryDx=0;entryDy=5;entryPerimeter=0;" edge="1" parent="1" source="Jm0r5_DeOLN-2_xh7fez-85" target="Jm0r5_DeOLN-2_xh7fez-89">
          <mxGeometry width="80" relative="1" as="geometry">
            <mxPoint x="1290.2600000000002" y="4640" as="sourcePoint" />
            <mxPoint x="1370.2600000000002" y="4640" as="targetPoint" />
          </mxGeometry>
        </mxCell>
        <mxCell id="Jm0r5_DeOLN-2_xh7fez-96" value="Busca comandos disponibles&amp;nbsp;&lt;div&gt;del usuario&lt;/div&gt;" style="html=1;verticalAlign=bottom;endArrow=block;curved=0;rounded=0;exitX=1;exitY=1;exitDx=0;exitDy=-5;exitPerimeter=0;" edge="1" parent="1" source="Jm0r5_DeOLN-2_xh7fez-89" target="Jm0r5_DeOLN-2_xh7fez-93">
          <mxGeometry width="80" relative="1" as="geometry">
            <mxPoint x="1290.2600000000002" y="4640" as="sourcePoint" />
            <mxPoint x="1370.2600000000002" y="4640" as="targetPoint" />
          </mxGeometry>
        </mxCell>
        <mxCell id="Jm0r5_DeOLN-2_xh7fez-97" value="Devuelve lista de comandos" style="html=1;verticalAlign=bottom;endArrow=open;dashed=1;endSize=8;curved=0;rounded=0;exitX=0;exitY=1;exitDx=0;exitDy=-5;exitPerimeter=0;entryX=1;entryY=0;entryDx=0;entryDy=5;entryPerimeter=0;" edge="1" parent="1" source="Jm0r5_DeOLN-2_xh7fez-93" target="Jm0r5_DeOLN-2_xh7fez-90">
          <mxGeometry relative="1" as="geometry">
            <mxPoint x="1370.2600000000002" y="4640" as="sourcePoint" />
            <mxPoint x="1290.2600000000002" y="4640" as="targetPoint" />
          </mxGeometry>
        </mxCell>
        <mxCell id="Jm0r5_DeOLN-2_xh7fez-98" value="Muestra comandos disponibles" style="html=1;verticalAlign=bottom;endArrow=open;dashed=1;endSize=8;curved=0;rounded=0;entryX=1;entryY=0;entryDx=0;entryDy=5;entryPerimeter=0;exitX=0;exitY=1;exitDx=0;exitDy=-5;exitPerimeter=0;" edge="1" parent="1" source="Jm0r5_DeOLN-2_xh7fez-90" target="Jm0r5_DeOLN-2_xh7fez-86">
          <mxGeometry relative="1" as="geometry">
            <mxPoint x="1370.2600000000002" y="4640" as="sourcePoint" />
            <mxPoint x="1290.2600000000002" y="4640" as="targetPoint" />
          </mxGeometry>
        </mxCell>
        <mxCell id="Jm0r5_DeOLN-2_xh7fez-99" value="" style="rounded=0;whiteSpace=wrap;html=1;labelBackgroundColor=none;" vertex="1" parent="1">
          <mxGeometry x="841" y="4763" width="800" height="287" as="geometry" />
        </mxCell>
        <mxCell id="Jm0r5_DeOLN-2_xh7fez-100" value="ENTRAR A CONFIGURACION" style="rounded=0;whiteSpace=wrap;html=1;labelBackgroundColor=none;" vertex="1" parent="1">
          <mxGeometry x="1077" y="4720" width="320" height="60" as="geometry" />
        </mxCell>
        <mxCell id="Jm0r5_DeOLN-2_xh7fez-101" value="Usuario" style="shape=umlLifeline;perimeter=lifelinePerimeter;whiteSpace=wrap;html=1;container=1;dropTarget=0;collapsible=0;recursiveResize=0;outlineConnect=0;portConstraint=eastwest;newEdgeStyle={&quot;curved&quot;:0,&quot;rounded&quot;:0};participant=umlActor;size=70;labelBackgroundColor=none;" vertex="1" parent="1">
          <mxGeometry x="886" y="4793" width="50" height="257" as="geometry" />
        </mxCell>
        <mxCell id="Jm0r5_DeOLN-2_xh7fez-102" value="" style="html=1;points=[[0,0,0,0,5],[0,1,0,0,-5],[1,0,0,0,5],[1,1,0,0,-5]];perimeter=orthogonalPerimeter;outlineConnect=0;targetShapes=umlLifeline;portConstraint=eastwest;newEdgeStyle={&quot;curved&quot;:0,&quot;rounded&quot;:0};" vertex="1" parent="Jm0r5_DeOLN-2_xh7fez-101">
          <mxGeometry x="20" y="107" width="10" height="143" as="geometry" />
        </mxCell>
        <mxCell id="Jm0r5_DeOLN-2_xh7fez-103" value=":UI" style="shape=umlLifeline;perimeter=lifelinePerimeter;whiteSpace=wrap;html=1;container=1;dropTarget=0;collapsible=0;recursiveResize=0;outlineConnect=0;portConstraint=eastwest;newEdgeStyle={&quot;curved&quot;:0,&quot;rounded&quot;:0};participant=umlBoundary;size=60;align=center;labelBackgroundColor=none;" vertex="1" parent="1">
          <mxGeometry x="1066.26" y="4796.5" width="80" height="253.5" as="geometry" />
        </mxCell>
        <mxCell id="Jm0r5_DeOLN-2_xh7fez-104" value="" style="html=1;points=[[0,0,0,0,5],[0,1,0,0,-5],[1,0,0,0,5],[1,1,0,0,-5]];perimeter=orthogonalPerimeter;outlineConnect=0;targetShapes=umlLifeline;portConstraint=eastwest;newEdgeStyle={&quot;curved&quot;:0,&quot;rounded&quot;:0};" vertex="1" parent="Jm0r5_DeOLN-2_xh7fez-103">
          <mxGeometry x="35" y="103.5" width="10" height="36.5" as="geometry" />
        </mxCell>
        <mxCell id="Jm0r5_DeOLN-2_xh7fez-105" value="" style="html=1;points=[[0,0,0,0,5],[0,1,0,0,-5],[1,0,0,0,5],[1,1,0,0,-5]];perimeter=orthogonalPerimeter;outlineConnect=0;targetShapes=umlLifeline;portConstraint=eastwest;newEdgeStyle={&quot;curved&quot;:0,&quot;rounded&quot;:0};" vertex="1" parent="Jm0r5_DeOLN-2_xh7fez-103">
          <mxGeometry x="35" y="203.5" width="10" height="36.5" as="geometry" />
        </mxCell>
        <mxCell id="Jm0r5_DeOLN-2_xh7fez-106" value="" style="html=1;points=[[0,0,0,0,5],[0,1,0,0,-5],[1,0,0,0,5],[1,1,0,0,-5]];perimeter=orthogonalPerimeter;outlineConnect=0;targetShapes=umlLifeline;portConstraint=eastwest;newEdgeStyle={&quot;curved&quot;:0,&quot;rounded&quot;:0};" vertex="1" parent="Jm0r5_DeOLN-2_xh7fez-103">
          <mxGeometry x="35" y="103.5" width="10" height="136.5" as="geometry" />
        </mxCell>
        <mxCell id="Jm0r5_DeOLN-2_xh7fez-107" value=":AppServer" style="shape=umlLifeline;perimeter=lifelinePerimeter;whiteSpace=wrap;html=1;container=1;dropTarget=0;collapsible=0;recursiveResize=0;outlineConnect=0;portConstraint=eastwest;newEdgeStyle={&quot;curved&quot;:0,&quot;rounded&quot;:0};labelBackgroundColor=none;" vertex="1" parent="1">
          <mxGeometry x="1291.2600000000002" y="4800" width="100" height="250" as="geometry" />
        </mxCell>
        <mxCell id="Jm0r5_DeOLN-2_xh7fez-108" value="" style="html=1;points=[[0,0,0,0,5],[0,1,0,0,-5],[1,0,0,0,5],[1,1,0,0,-5]];perimeter=orthogonalPerimeter;outlineConnect=0;targetShapes=umlLifeline;portConstraint=eastwest;newEdgeStyle={&quot;curved&quot;:0,&quot;rounded&quot;:0};" vertex="1" parent="Jm0r5_DeOLN-2_xh7fez-107">
          <mxGeometry x="45" y="126.5" width="10" height="43.5" as="geometry" />
        </mxCell>
        <mxCell id="Jm0r5_DeOLN-2_xh7fez-109" value="" style="html=1;points=[[0,0,0,0,5],[0,1,0,0,-5],[1,0,0,0,5],[1,1,0,0,-5]];perimeter=orthogonalPerimeter;outlineConnect=0;targetShapes=umlLifeline;portConstraint=eastwest;newEdgeStyle={&quot;curved&quot;:0,&quot;rounded&quot;:0};" vertex="1" parent="Jm0r5_DeOLN-2_xh7fez-107">
          <mxGeometry x="45" y="180" width="10" height="30" as="geometry" />
        </mxCell>
        <mxCell id="Jm0r5_DeOLN-2_xh7fez-110" value="" style="html=1;points=[[0,0,0,0,5],[0,1,0,0,-5],[1,0,0,0,5],[1,1,0,0,-5]];perimeter=orthogonalPerimeter;outlineConnect=0;targetShapes=umlLifeline;portConstraint=eastwest;newEdgeStyle={&quot;curved&quot;:0,&quot;rounded&quot;:0};" vertex="1" parent="Jm0r5_DeOLN-2_xh7fez-107">
          <mxGeometry x="45" y="126.5" width="10" height="93.5" as="geometry" />
        </mxCell>
        <mxCell id="Jm0r5_DeOLN-2_xh7fez-111" value="BD:LinuxLearn" style="shape=umlLifeline;perimeter=lifelinePerimeter;whiteSpace=wrap;html=1;container=1;dropTarget=0;collapsible=0;recursiveResize=0;outlineConnect=0;portConstraint=eastwest;newEdgeStyle={&quot;curved&quot;:0,&quot;rounded&quot;:0};participant=umlEntity;size=60;labelBackgroundColor=none;" vertex="1" parent="1">
          <mxGeometry x="1517.2600000000002" y="4780" width="80" height="270" as="geometry" />
        </mxCell>
        <mxCell id="Jm0r5_DeOLN-2_xh7fez-112" value="" style="html=1;points=[[0,0,0,0,5],[0,1,0,0,-5],[1,0,0,0,5],[1,1,0,0,-5]];perimeter=orthogonalPerimeter;outlineConnect=0;targetShapes=umlLifeline;portConstraint=eastwest;newEdgeStyle={&quot;curved&quot;:0,&quot;rounded&quot;:0};" vertex="1" parent="Jm0r5_DeOLN-2_xh7fez-111">
          <mxGeometry x="35" y="180" width="10" height="30" as="geometry" />
        </mxCell>
        <mxCell id="Jm0r5_DeOLN-2_xh7fez-113" value="Click en configuracion" style="html=1;verticalAlign=bottom;endArrow=block;curved=0;rounded=0;exitX=1;exitY=0;exitDx=0;exitDy=5;exitPerimeter=0;entryX=0;entryY=0;entryDx=0;entryDy=5;entryPerimeter=0;" edge="1" parent="1" source="Jm0r5_DeOLN-2_xh7fez-102" target="Jm0r5_DeOLN-2_xh7fez-104">
          <mxGeometry width="80" relative="1" as="geometry">
            <mxPoint x="910.8235294117646" y="4930" as="sourcePoint" />
            <mxPoint x="1106.26" y="4930" as="targetPoint" />
          </mxGeometry>
        </mxCell>
        <mxCell id="Jm0r5_DeOLN-2_xh7fez-114" value="Solicita informacion del usuario" style="html=1;verticalAlign=bottom;endArrow=block;curved=0;rounded=0;exitX=1;exitY=1;exitDx=0;exitDy=-5;exitPerimeter=0;entryX=0;entryY=0;entryDx=0;entryDy=5;entryPerimeter=0;" edge="1" parent="1" source="Jm0r5_DeOLN-2_xh7fez-104" target="Jm0r5_DeOLN-2_xh7fez-108">
          <mxGeometry width="80" relative="1" as="geometry">
            <mxPoint x="1291.2600000000002" y="5080" as="sourcePoint" />
            <mxPoint x="1371.2600000000002" y="5080" as="targetPoint" />
          </mxGeometry>
        </mxCell>
        <mxCell id="Jm0r5_DeOLN-2_xh7fez-115" value="Busca informacion del usuario" style="html=1;verticalAlign=bottom;endArrow=block;curved=0;rounded=0;exitX=1;exitY=1;exitDx=0;exitDy=-5;exitPerimeter=0;" edge="1" parent="1" source="Jm0r5_DeOLN-2_xh7fez-108" target="Jm0r5_DeOLN-2_xh7fez-112">
          <mxGeometry width="80" relative="1" as="geometry">
            <mxPoint x="1291.2600000000002" y="5080" as="sourcePoint" />
            <mxPoint x="1371.2600000000002" y="5080" as="targetPoint" />
          </mxGeometry>
        </mxCell>
        <mxCell id="Jm0r5_DeOLN-2_xh7fez-116" value="Devuelve datos del usuario" style="html=1;verticalAlign=bottom;endArrow=open;dashed=1;endSize=8;curved=0;rounded=0;exitX=0;exitY=1;exitDx=0;exitDy=-5;exitPerimeter=0;entryX=1;entryY=0;entryDx=0;entryDy=5;entryPerimeter=0;" edge="1" parent="1" source="Jm0r5_DeOLN-2_xh7fez-112" target="Jm0r5_DeOLN-2_xh7fez-109">
          <mxGeometry relative="1" as="geometry">
            <mxPoint x="1371.2600000000002" y="5080" as="sourcePoint" />
            <mxPoint x="1291.2600000000002" y="5080" as="targetPoint" />
          </mxGeometry>
        </mxCell>
        <mxCell id="Jm0r5_DeOLN-2_xh7fez-117" value="Muestra configuracion" style="html=1;verticalAlign=bottom;endArrow=open;dashed=1;endSize=8;curved=0;rounded=0;entryX=1;entryY=0;entryDx=0;entryDy=5;entryPerimeter=0;exitX=0;exitY=1;exitDx=0;exitDy=-5;exitPerimeter=0;" edge="1" parent="1" source="Jm0r5_DeOLN-2_xh7fez-109" target="Jm0r5_DeOLN-2_xh7fez-105">
          <mxGeometry relative="1" as="geometry">
            <mxPoint x="1371.2600000000002" y="5080" as="sourcePoint" />
            <mxPoint x="1291.2600000000002" y="5080" as="targetPoint" />
          </mxGeometry>
        </mxCell>
        <mxCell id="Jm0r5_DeOLN-2_xh7fez-118" value="" style="rounded=0;whiteSpace=wrap;html=1;labelBackgroundColor=none;" vertex="1" parent="1">
          <mxGeometry x="832" y="5138" width="800" height="287" as="geometry" />
        </mxCell>
        <mxCell id="Jm0r5_DeOLN-2_xh7fez-119" value="VER RACHA Y EXPERIENCIA" style="rounded=0;whiteSpace=wrap;html=1;labelBackgroundColor=none;" vertex="1" parent="1">
          <mxGeometry x="1068" y="5095" width="320" height="60" as="geometry" />
        </mxCell>
        <mxCell id="Jm0r5_DeOLN-2_xh7fez-120" value="Usuario" style="shape=umlLifeline;perimeter=lifelinePerimeter;whiteSpace=wrap;html=1;container=1;dropTarget=0;collapsible=0;recursiveResize=0;outlineConnect=0;portConstraint=eastwest;newEdgeStyle={&quot;curved&quot;:0,&quot;rounded&quot;:0};participant=umlActor;size=70;labelBackgroundColor=none;" vertex="1" parent="1">
          <mxGeometry x="877" y="5168" width="50" height="257" as="geometry" />
        </mxCell>
        <mxCell id="Jm0r5_DeOLN-2_xh7fez-121" value="" style="html=1;points=[[0,0,0,0,5],[0,1,0,0,-5],[1,0,0,0,5],[1,1,0,0,-5]];perimeter=orthogonalPerimeter;outlineConnect=0;targetShapes=umlLifeline;portConstraint=eastwest;newEdgeStyle={&quot;curved&quot;:0,&quot;rounded&quot;:0};" vertex="1" parent="Jm0r5_DeOLN-2_xh7fez-120">
          <mxGeometry x="20" y="107" width="10" height="143" as="geometry" />
        </mxCell>
        <mxCell id="Jm0r5_DeOLN-2_xh7fez-122" value=":UI" style="shape=umlLifeline;perimeter=lifelinePerimeter;whiteSpace=wrap;html=1;container=1;dropTarget=0;collapsible=0;recursiveResize=0;outlineConnect=0;portConstraint=eastwest;newEdgeStyle={&quot;curved&quot;:0,&quot;rounded&quot;:0};participant=umlBoundary;size=60;align=center;labelBackgroundColor=none;" vertex="1" parent="1">
          <mxGeometry x="1057.26" y="5171.5" width="80" height="253.5" as="geometry" />
        </mxCell>
        <mxCell id="Jm0r5_DeOLN-2_xh7fez-123" value="" style="html=1;points=[[0,0,0,0,5],[0,1,0,0,-5],[1,0,0,0,5],[1,1,0,0,-5]];perimeter=orthogonalPerimeter;outlineConnect=0;targetShapes=umlLifeline;portConstraint=eastwest;newEdgeStyle={&quot;curved&quot;:0,&quot;rounded&quot;:0};" vertex="1" parent="Jm0r5_DeOLN-2_xh7fez-122">
          <mxGeometry x="35" y="103.5" width="10" height="36.5" as="geometry" />
        </mxCell>
        <mxCell id="Jm0r5_DeOLN-2_xh7fez-124" value="" style="html=1;points=[[0,0,0,0,5],[0,1,0,0,-5],[1,0,0,0,5],[1,1,0,0,-5]];perimeter=orthogonalPerimeter;outlineConnect=0;targetShapes=umlLifeline;portConstraint=eastwest;newEdgeStyle={&quot;curved&quot;:0,&quot;rounded&quot;:0};" vertex="1" parent="Jm0r5_DeOLN-2_xh7fez-122">
          <mxGeometry x="35" y="203.5" width="10" height="36.5" as="geometry" />
        </mxCell>
        <mxCell id="Jm0r5_DeOLN-2_xh7fez-125" value="" style="html=1;points=[[0,0,0,0,5],[0,1,0,0,-5],[1,0,0,0,5],[1,1,0,0,-5]];perimeter=orthogonalPerimeter;outlineConnect=0;targetShapes=umlLifeline;portConstraint=eastwest;newEdgeStyle={&quot;curved&quot;:0,&quot;rounded&quot;:0};" vertex="1" parent="Jm0r5_DeOLN-2_xh7fez-122">
          <mxGeometry x="35" y="103.5" width="10" height="136.5" as="geometry" />
        </mxCell>
        <mxCell id="Jm0r5_DeOLN-2_xh7fez-126" value=":AppServer" style="shape=umlLifeline;perimeter=lifelinePerimeter;whiteSpace=wrap;html=1;container=1;dropTarget=0;collapsible=0;recursiveResize=0;outlineConnect=0;portConstraint=eastwest;newEdgeStyle={&quot;curved&quot;:0,&quot;rounded&quot;:0};labelBackgroundColor=none;" vertex="1" parent="1">
          <mxGeometry x="1282.2600000000002" y="5175" width="100" height="250" as="geometry" />
        </mxCell>
        <mxCell id="Jm0r5_DeOLN-2_xh7fez-127" value="" style="html=1;points=[[0,0,0,0,5],[0,1,0,0,-5],[1,0,0,0,5],[1,1,0,0,-5]];perimeter=orthogonalPerimeter;outlineConnect=0;targetShapes=umlLifeline;portConstraint=eastwest;newEdgeStyle={&quot;curved&quot;:0,&quot;rounded&quot;:0};" vertex="1" parent="Jm0r5_DeOLN-2_xh7fez-126">
          <mxGeometry x="45" y="126.5" width="10" height="43.5" as="geometry" />
        </mxCell>
        <mxCell id="Jm0r5_DeOLN-2_xh7fez-128" value="" style="html=1;points=[[0,0,0,0,5],[0,1,0,0,-5],[1,0,0,0,5],[1,1,0,0,-5]];perimeter=orthogonalPerimeter;outlineConnect=0;targetShapes=umlLifeline;portConstraint=eastwest;newEdgeStyle={&quot;curved&quot;:0,&quot;rounded&quot;:0};" vertex="1" parent="Jm0r5_DeOLN-2_xh7fez-126">
          <mxGeometry x="45" y="180" width="10" height="30" as="geometry" />
        </mxCell>
        <mxCell id="Jm0r5_DeOLN-2_xh7fez-129" value="" style="html=1;points=[[0,0,0,0,5],[0,1,0,0,-5],[1,0,0,0,5],[1,1,0,0,-5]];perimeter=orthogonalPerimeter;outlineConnect=0;targetShapes=umlLifeline;portConstraint=eastwest;newEdgeStyle={&quot;curved&quot;:0,&quot;rounded&quot;:0};" vertex="1" parent="Jm0r5_DeOLN-2_xh7fez-126">
          <mxGeometry x="45" y="126.5" width="10" height="93.5" as="geometry" />
        </mxCell>
        <mxCell id="Jm0r5_DeOLN-2_xh7fez-130" value="BD:LinuxLearn" style="shape=umlLifeline;perimeter=lifelinePerimeter;whiteSpace=wrap;html=1;container=1;dropTarget=0;collapsible=0;recursiveResize=0;outlineConnect=0;portConstraint=eastwest;newEdgeStyle={&quot;curved&quot;:0,&quot;rounded&quot;:0};participant=umlEntity;size=60;labelBackgroundColor=none;" vertex="1" parent="1">
          <mxGeometry x="1508.2600000000002" y="5155" width="80" height="270" as="geometry" />
        </mxCell>
        <mxCell id="Jm0r5_DeOLN-2_xh7fez-131" value="" style="html=1;points=[[0,0,0,0,5],[0,1,0,0,-5],[1,0,0,0,5],[1,1,0,0,-5]];perimeter=orthogonalPerimeter;outlineConnect=0;targetShapes=umlLifeline;portConstraint=eastwest;newEdgeStyle={&quot;curved&quot;:0,&quot;rounded&quot;:0};" vertex="1" parent="Jm0r5_DeOLN-2_xh7fez-130">
          <mxGeometry x="35" y="180" width="10" height="30" as="geometry" />
        </mxCell>
        <mxCell id="Jm0r5_DeOLN-2_xh7fez-132" value="Click en home" style="html=1;verticalAlign=bottom;endArrow=block;curved=0;rounded=0;exitX=1;exitY=0;exitDx=0;exitDy=5;exitPerimeter=0;entryX=0;entryY=0;entryDx=0;entryDy=5;entryPerimeter=0;" edge="1" parent="1" source="Jm0r5_DeOLN-2_xh7fez-121" target="Jm0r5_DeOLN-2_xh7fez-123">
          <mxGeometry width="80" relative="1" as="geometry">
            <mxPoint x="901.8235294117646" y="5305" as="sourcePoint" />
            <mxPoint x="1097.26" y="5305" as="targetPoint" />
          </mxGeometry>
        </mxCell>
        <mxCell id="Jm0r5_DeOLN-2_xh7fez-133" value="Solicita racha y exp del usuario" style="html=1;verticalAlign=bottom;endArrow=block;curved=0;rounded=0;exitX=1;exitY=1;exitDx=0;exitDy=-5;exitPerimeter=0;entryX=0;entryY=0;entryDx=0;entryDy=5;entryPerimeter=0;" edge="1" parent="1" source="Jm0r5_DeOLN-2_xh7fez-123" target="Jm0r5_DeOLN-2_xh7fez-127">
          <mxGeometry width="80" relative="1" as="geometry">
            <mxPoint x="1282.2600000000002" y="5455" as="sourcePoint" />
            <mxPoint x="1362.2600000000002" y="5455" as="targetPoint" />
          </mxGeometry>
        </mxCell>
        <mxCell id="Jm0r5_DeOLN-2_xh7fez-134" value="Busca racha y exp&amp;nbsp;&lt;div&gt;del usuario&lt;/div&gt;" style="html=1;verticalAlign=bottom;endArrow=block;curved=0;rounded=0;exitX=1;exitY=1;exitDx=0;exitDy=-5;exitPerimeter=0;" edge="1" parent="1" source="Jm0r5_DeOLN-2_xh7fez-127" target="Jm0r5_DeOLN-2_xh7fez-131">
          <mxGeometry width="80" relative="1" as="geometry">
            <mxPoint x="1282.2600000000002" y="5455" as="sourcePoint" />
            <mxPoint x="1362.2600000000002" y="5455" as="targetPoint" />
          </mxGeometry>
        </mxCell>
        <mxCell id="Jm0r5_DeOLN-2_xh7fez-135" value="Devuelve racha y exp" style="html=1;verticalAlign=bottom;endArrow=open;dashed=1;endSize=8;curved=0;rounded=0;exitX=0;exitY=1;exitDx=0;exitDy=-5;exitPerimeter=0;entryX=1;entryY=0;entryDx=0;entryDy=5;entryPerimeter=0;" edge="1" parent="1" source="Jm0r5_DeOLN-2_xh7fez-131" target="Jm0r5_DeOLN-2_xh7fez-128">
          <mxGeometry relative="1" as="geometry">
            <mxPoint x="1362.2600000000002" y="5455" as="sourcePoint" />
            <mxPoint x="1282.2600000000002" y="5455" as="targetPoint" />
          </mxGeometry>
        </mxCell>
        <mxCell id="Jm0r5_DeOLN-2_xh7fez-136" value="Muestra racha y exp" style="html=1;verticalAlign=bottom;endArrow=open;dashed=1;endSize=8;curved=0;rounded=0;entryX=1;entryY=0;entryDx=0;entryDy=5;entryPerimeter=0;exitX=0;exitY=1;exitDx=0;exitDy=-5;exitPerimeter=0;" edge="1" parent="1" source="Jm0r5_DeOLN-2_xh7fez-128" target="Jm0r5_DeOLN-2_xh7fez-124">
          <mxGeometry relative="1" as="geometry">
            <mxPoint x="1362.2600000000002" y="5455" as="sourcePoint" />
            <mxPoint x="1282.2600000000002" y="5455" as="targetPoint" />
          </mxGeometry>
        </mxCell>
        <mxCell id="Jm0r5_DeOLN-2_xh7fez-137" value="" style="rounded=0;whiteSpace=wrap;html=1;labelBackgroundColor=none;" vertex="1" parent="1">
          <mxGeometry x="837" y="5893" width="800" height="637" as="geometry" />
        </mxCell>
        <mxCell id="Jm0r5_DeOLN-2_xh7fez-138" value="INGRESAR COMANDO" style="rounded=0;whiteSpace=wrap;html=1;labelBackgroundColor=none;" vertex="1" parent="1">
          <mxGeometry x="1073" y="5850" width="320" height="60" as="geometry" />
        </mxCell>
        <mxCell id="Jm0r5_DeOLN-2_xh7fez-139" value="Usuario" style="shape=umlLifeline;perimeter=lifelinePerimeter;whiteSpace=wrap;html=1;container=1;dropTarget=0;collapsible=0;recursiveResize=0;outlineConnect=0;portConstraint=eastwest;newEdgeStyle={&quot;curved&quot;:0,&quot;rounded&quot;:0};participant=umlActor;size=70;labelBackgroundColor=none;" vertex="1" parent="1">
          <mxGeometry x="882" y="5923" width="50" height="587" as="geometry" />
        </mxCell>
        <mxCell id="Jm0r5_DeOLN-2_xh7fez-140" value="" style="html=1;points=[[0,0,0,0,5],[0,1,0,0,-5],[1,0,0,0,5],[1,1,0,0,-5]];perimeter=orthogonalPerimeter;outlineConnect=0;targetShapes=umlLifeline;portConstraint=eastwest;newEdgeStyle={&quot;curved&quot;:0,&quot;rounded&quot;:0};" vertex="1" parent="Jm0r5_DeOLN-2_xh7fez-139">
          <mxGeometry x="20" y="107" width="10" height="143" as="geometry" />
        </mxCell>
        <mxCell id="Jm0r5_DeOLN-2_xh7fez-171" value="" style="html=1;points=[[0,0,0,0,5],[0,1,0,0,-5],[1,0,0,0,5],[1,1,0,0,-5]];perimeter=orthogonalPerimeter;outlineConnect=0;targetShapes=umlLifeline;portConstraint=eastwest;newEdgeStyle={&quot;curved&quot;:0,&quot;rounded&quot;:0};" vertex="1" parent="Jm0r5_DeOLN-2_xh7fez-139">
          <mxGeometry x="20" y="327" width="10" height="23" as="geometry" />
        </mxCell>
        <mxCell id="Jm0r5_DeOLN-2_xh7fez-192" value="" style="html=1;points=[[0,0,0,0,5],[0,1,0,0,-5],[1,0,0,0,5],[1,1,0,0,-5]];perimeter=orthogonalPerimeter;outlineConnect=0;targetShapes=umlLifeline;portConstraint=eastwest;newEdgeStyle={&quot;curved&quot;:0,&quot;rounded&quot;:0};" vertex="1" parent="Jm0r5_DeOLN-2_xh7fez-139">
          <mxGeometry x="20" y="107" width="10" height="443" as="geometry" />
        </mxCell>
        <mxCell id="Jm0r5_DeOLN-2_xh7fez-141" value=":UI" style="shape=umlLifeline;perimeter=lifelinePerimeter;whiteSpace=wrap;html=1;container=1;dropTarget=0;collapsible=0;recursiveResize=0;outlineConnect=0;portConstraint=eastwest;newEdgeStyle={&quot;curved&quot;:0,&quot;rounded&quot;:0};participant=umlBoundary;size=60;align=center;labelBackgroundColor=none;" vertex="1" parent="1">
          <mxGeometry x="1062.26" y="5926.5" width="80" height="583.5" as="geometry" />
        </mxCell>
        <mxCell id="Jm0r5_DeOLN-2_xh7fez-163" value="" style="html=1;points=[[0,0,0,0,5],[0,1,0,0,-5],[1,0,0,0,5],[1,1,0,0,-5]];perimeter=orthogonalPerimeter;outlineConnect=0;targetShapes=umlLifeline;portConstraint=eastwest;newEdgeStyle={&quot;curved&quot;:0,&quot;rounded&quot;:0};" vertex="1" parent="Jm0r5_DeOLN-2_xh7fez-141">
          <mxGeometry x="35" y="263.5" width="10" height="36.5" as="geometry" />
        </mxCell>
        <mxCell id="Jm0r5_DeOLN-2_xh7fez-142" value="" style="html=1;points=[[0,0,0,0,5],[0,1,0,0,-5],[1,0,0,0,5],[1,1,0,0,-5]];perimeter=orthogonalPerimeter;outlineConnect=0;targetShapes=umlLifeline;portConstraint=eastwest;newEdgeStyle={&quot;curved&quot;:0,&quot;rounded&quot;:0};" vertex="1" parent="Jm0r5_DeOLN-2_xh7fez-141">
          <mxGeometry x="35" y="103.5" width="10" height="36.5" as="geometry" />
        </mxCell>
        <mxCell id="Jm0r5_DeOLN-2_xh7fez-144" value="" style="html=1;points=[[0,0,0,0,5],[0,1,0,0,-5],[1,0,0,0,5],[1,1,0,0,-5]];perimeter=orthogonalPerimeter;outlineConnect=0;targetShapes=umlLifeline;portConstraint=eastwest;newEdgeStyle={&quot;curved&quot;:0,&quot;rounded&quot;:0};" vertex="1" parent="Jm0r5_DeOLN-2_xh7fez-141">
          <mxGeometry x="35" y="100" width="10" height="450" as="geometry" />
        </mxCell>
        <mxCell id="Jm0r5_DeOLN-2_xh7fez-145" value=":AppServer" style="shape=umlLifeline;perimeter=lifelinePerimeter;whiteSpace=wrap;html=1;container=1;dropTarget=0;collapsible=0;recursiveResize=0;outlineConnect=0;portConstraint=eastwest;newEdgeStyle={&quot;curved&quot;:0,&quot;rounded&quot;:0};labelBackgroundColor=none;" vertex="1" parent="1">
          <mxGeometry x="1287.26" y="5930" width="100" height="580" as="geometry" />
        </mxCell>
        <mxCell id="Jm0r5_DeOLN-2_xh7fez-146" value="" style="html=1;points=[[0,0,0,0,5],[0,1,0,0,-5],[1,0,0,0,5],[1,1,0,0,-5]];perimeter=orthogonalPerimeter;outlineConnect=0;targetShapes=umlLifeline;portConstraint=eastwest;newEdgeStyle={&quot;curved&quot;:0,&quot;rounded&quot;:0};" vertex="1" parent="Jm0r5_DeOLN-2_xh7fez-145">
          <mxGeometry x="45" y="126.5" width="10" height="43.5" as="geometry" />
        </mxCell>
        <mxCell id="Jm0r5_DeOLN-2_xh7fez-147" value="" style="html=1;points=[[0,0,0,0,5],[0,1,0,0,-5],[1,0,0,0,5],[1,1,0,0,-5]];perimeter=orthogonalPerimeter;outlineConnect=0;targetShapes=umlLifeline;portConstraint=eastwest;newEdgeStyle={&quot;curved&quot;:0,&quot;rounded&quot;:0};" vertex="1" parent="Jm0r5_DeOLN-2_xh7fez-145">
          <mxGeometry x="45" y="210" width="10" height="40" as="geometry" />
        </mxCell>
        <mxCell id="Jm0r5_DeOLN-2_xh7fez-193" value="" style="html=1;points=[[0,0,0,0,5],[0,1,0,0,-5],[1,0,0,0,5],[1,1,0,0,-5]];perimeter=orthogonalPerimeter;outlineConnect=0;targetShapes=umlLifeline;portConstraint=eastwest;newEdgeStyle={&quot;curved&quot;:0,&quot;rounded&quot;:0};" vertex="1" parent="Jm0r5_DeOLN-2_xh7fez-145">
          <mxGeometry x="45" y="126.5" width="10" height="393.5" as="geometry" />
        </mxCell>
        <mxCell id="Jm0r5_DeOLN-2_xh7fez-149" value="BD:LinuxLearn" style="shape=umlLifeline;perimeter=lifelinePerimeter;whiteSpace=wrap;html=1;container=1;dropTarget=0;collapsible=0;recursiveResize=0;outlineConnect=0;portConstraint=eastwest;newEdgeStyle={&quot;curved&quot;:0,&quot;rounded&quot;:0};participant=umlEntity;size=60;labelBackgroundColor=none;" vertex="1" parent="1">
          <mxGeometry x="1513.26" y="5910" width="80" height="600" as="geometry" />
        </mxCell>
        <mxCell id="Jm0r5_DeOLN-2_xh7fez-150" value="" style="html=1;points=[[0,0,0,0,5],[0,1,0,0,-5],[1,0,0,0,5],[1,1,0,0,-5]];perimeter=orthogonalPerimeter;outlineConnect=0;targetShapes=umlLifeline;portConstraint=eastwest;newEdgeStyle={&quot;curved&quot;:0,&quot;rounded&quot;:0};" vertex="1" parent="Jm0r5_DeOLN-2_xh7fez-149">
          <mxGeometry x="35" y="180" width="10" height="60" as="geometry" />
        </mxCell>
        <mxCell id="Jm0r5_DeOLN-2_xh7fez-151" value="Escribe comando y lo envia" style="html=1;verticalAlign=bottom;endArrow=block;curved=0;rounded=0;exitX=1;exitY=0;exitDx=0;exitDy=5;exitPerimeter=0;entryX=0;entryY=0;entryDx=0;entryDy=5;entryPerimeter=0;" edge="1" parent="1" source="Jm0r5_DeOLN-2_xh7fez-140" target="Jm0r5_DeOLN-2_xh7fez-142">
          <mxGeometry width="80" relative="1" as="geometry">
            <mxPoint x="906.8235294117646" y="6060" as="sourcePoint" />
            <mxPoint x="1102.26" y="6060" as="targetPoint" />
          </mxGeometry>
        </mxCell>
        <mxCell id="Jm0r5_DeOLN-2_xh7fez-152" value="Envia comando" style="html=1;verticalAlign=bottom;endArrow=block;curved=0;rounded=0;exitX=1;exitY=1;exitDx=0;exitDy=-5;exitPerimeter=0;entryX=0;entryY=0;entryDx=0;entryDy=5;entryPerimeter=0;" edge="1" parent="1" source="Jm0r5_DeOLN-2_xh7fez-142" target="Jm0r5_DeOLN-2_xh7fez-146">
          <mxGeometry width="80" relative="1" as="geometry">
            <mxPoint x="1287.2600000000002" y="6210" as="sourcePoint" />
            <mxPoint x="1367.2600000000002" y="6210" as="targetPoint" />
          </mxGeometry>
        </mxCell>
        <mxCell id="Jm0r5_DeOLN-2_xh7fez-153" value="Verifica si el comando es correcto" style="html=1;verticalAlign=bottom;endArrow=block;curved=0;rounded=0;exitX=1;exitY=1;exitDx=0;exitDy=-5;exitPerimeter=0;" edge="1" parent="1" source="Jm0r5_DeOLN-2_xh7fez-146" target="Jm0r5_DeOLN-2_xh7fez-150">
          <mxGeometry width="80" relative="1" as="geometry">
            <mxPoint x="1287.2600000000002" y="6210" as="sourcePoint" />
            <mxPoint x="1367.2600000000002" y="6210" as="targetPoint" />
            <Array as="points">
              <mxPoint x="1440" y="6095" />
            </Array>
          </mxGeometry>
        </mxCell>
        <mxCell id="Jm0r5_DeOLN-2_xh7fez-158" value="Respuesta valida" style="html=1;verticalAlign=bottom;endArrow=open;dashed=1;endSize=8;curved=0;rounded=0;exitX=0;exitY=1;exitDx=0;exitDy=-5;exitPerimeter=0;entryX=1;entryY=0;entryDx=0;entryDy=5;entryPerimeter=0;" edge="1" parent="1" source="Jm0r5_DeOLN-2_xh7fez-150" target="Jm0r5_DeOLN-2_xh7fez-147">
          <mxGeometry relative="1" as="geometry">
            <mxPoint x="1350" y="6170" as="sourcePoint" />
            <mxPoint x="1310" y="6158.5" as="targetPoint" />
          </mxGeometry>
        </mxCell>
        <mxCell id="Jm0r5_DeOLN-2_xh7fez-160" value="" style="html=1;points=[[0,0,0,0,5],[0,1,0,0,-5],[1,0,0,0,5],[1,1,0,0,-5]];perimeter=orthogonalPerimeter;outlineConnect=0;targetShapes=umlLifeline;portConstraint=eastwest;newEdgeStyle={&quot;curved&quot;:0,&quot;rounded&quot;:0};" vertex="1" parent="1">
          <mxGeometry x="1548.26" y="6170" width="10" height="30" as="geometry" />
        </mxCell>
        <mxCell id="Jm0r5_DeOLN-2_xh7fez-161" value="Actualizar progreso y experiencia" style="html=1;verticalAlign=bottom;endArrow=block;curved=0;rounded=0;entryX=0;entryY=0;entryDx=0;entryDy=5;entryPerimeter=0;exitX=1;exitY=1;exitDx=0;exitDy=-5;exitPerimeter=0;" edge="1" parent="1" source="Jm0r5_DeOLN-2_xh7fez-147" target="Jm0r5_DeOLN-2_xh7fez-160">
          <mxGeometry width="80" relative="1" as="geometry">
            <mxPoint x="1200" y="6120" as="sourcePoint" />
            <mxPoint x="1280" y="6120" as="targetPoint" />
          </mxGeometry>
        </mxCell>
        <mxCell id="Jm0r5_DeOLN-2_xh7fez-164" value="Mostrar mensaje de retroalimentacion" style="html=1;verticalAlign=bottom;endArrow=open;dashed=1;endSize=8;curved=0;rounded=0;exitX=0;exitY=0;exitDx=0;exitDy=5;exitPerimeter=0;entryX=1;entryY=0;entryDx=0;entryDy=5;entryPerimeter=0;" edge="1" parent="1" source="Jm0r5_DeOLN-2_xh7fez-162" target="Jm0r5_DeOLN-2_xh7fez-163">
          <mxGeometry relative="1" as="geometry">
            <mxPoint x="1280" y="6120" as="sourcePoint" />
            <mxPoint x="1200" y="6120" as="targetPoint" />
          </mxGeometry>
        </mxCell>
        <mxCell id="Jm0r5_DeOLN-2_xh7fez-170" value="Click siguiente leccion" style="html=1;verticalAlign=bottom;endArrow=block;curved=0;rounded=0;entryX=0;entryY=0;entryDx=0;entryDy=5;entryPerimeter=0;exitX=1;exitY=0;exitDx=0;exitDy=5;exitPerimeter=0;" edge="1" parent="1" source="Jm0r5_DeOLN-2_xh7fez-171" target="Jm0r5_DeOLN-2_xh7fez-172">
          <mxGeometry width="80" relative="1" as="geometry">
            <mxPoint x="1200" y="6220" as="sourcePoint" />
            <mxPoint x="1067" y="6430" as="targetPoint" />
          </mxGeometry>
        </mxCell>
        <mxCell id="Jm0r5_DeOLN-2_xh7fez-166" value="opt" style="shape=umlFrame;whiteSpace=wrap;html=1;pointerEvents=0;" vertex="1" parent="1">
          <mxGeometry x="862" y="6210" width="750" height="160" as="geometry" />
        </mxCell>
        <mxCell id="Jm0r5_DeOLN-2_xh7fez-167" value="[Hay siguiente leccion]" style="text;align=center;fontStyle=0;verticalAlign=middle;spacingLeft=3;spacingRight=3;rotatable=0;points=[[0,0.5],[1,0.5]];portConstraint=eastwest;html=1;fontSize=10;labelBackgroundColor=none;" vertex="1" parent="1">
          <mxGeometry x="920.74" y="6210" width="109.26" height="20" as="geometry" />
        </mxCell>
        <mxCell id="Jm0r5_DeOLN-2_xh7fez-156" value="alt" style="shape=umlFrame;whiteSpace=wrap;html=1;pointerEvents=0;" vertex="1" parent="1">
          <mxGeometry x="862" y="6100" width="750" height="400" as="geometry" />
        </mxCell>
        <mxCell id="Jm0r5_DeOLN-2_xh7fez-157" value="[Comando correcto]" style="text;align=center;fontStyle=1;verticalAlign=middle;spacingLeft=3;spacingRight=3;rotatable=0;points=[[0,0.5],[1,0.5]];portConstraint=eastwest;html=1;fontSize=10;labelBackgroundColor=none;" vertex="1" parent="1">
          <mxGeometry x="932" y="6103.25" width="100" height="26.5" as="geometry" />
        </mxCell>
        <mxCell id="Jm0r5_DeOLN-2_xh7fez-178" value="Solicita datos de la leccion" style="html=1;verticalAlign=bottom;endArrow=block;curved=0;rounded=0;exitX=1;exitY=1;exitDx=0;exitDy=-5;exitPerimeter=0;entryX=0;entryY=0;entryDx=0;entryDy=5;entryPerimeter=0;" edge="1" parent="1" target="Jm0r5_DeOLN-2_xh7fez-177">
          <mxGeometry width="80" relative="1" as="geometry">
            <mxPoint x="1109.26" y="6265.5" as="sourcePoint" />
            <mxPoint x="1334.26" y="6265.5" as="targetPoint" />
          </mxGeometry>
        </mxCell>
        <mxCell id="Jm0r5_DeOLN-2_xh7fez-181" value="Muestra la leccion" style="html=1;verticalAlign=bottom;endArrow=open;dashed=1;endSize=8;curved=0;rounded=0;entryX=1;entryY=0;entryDx=0;entryDy=5;entryPerimeter=0;exitX=0;exitY=1;exitDx=0;exitDy=-5;exitPerimeter=0;" edge="1" parent="1">
          <mxGeometry relative="1" as="geometry">
            <mxPoint x="1334.26" y="6338.5" as="sourcePoint" />
            <mxPoint x="1109.26" y="6338.5" as="targetPoint" />
          </mxGeometry>
        </mxCell>
        <mxCell id="Jm0r5_DeOLN-2_xh7fez-179" value="Busca los datos de la leccion" style="html=1;verticalAlign=bottom;endArrow=block;curved=0;rounded=0;entryX=0;entryY=0;entryDx=0;entryDy=5;entryPerimeter=0;" edge="1" parent="1" source="Jm0r5_DeOLN-2_xh7fez-177" target="Jm0r5_DeOLN-2_xh7fez-182">
          <mxGeometry width="80" relative="1" as="geometry">
            <mxPoint x="1344.26" y="6298.5" as="sourcePoint" />
            <mxPoint x="1550.26" y="6298.5" as="targetPoint" />
          </mxGeometry>
        </mxCell>
        <mxCell id="Jm0r5_DeOLN-2_xh7fez-180" value="Devuelve los datos de la leccion" style="html=1;verticalAlign=bottom;endArrow=open;dashed=1;endSize=8;curved=0;rounded=0;" edge="1" parent="1">
          <mxGeometry relative="1" as="geometry">
            <mxPoint x="1547.26" y="6320" as="sourcePoint" />
            <mxPoint x="1342" y="6320" as="targetPoint" />
          </mxGeometry>
        </mxCell>
        <mxCell id="Jm0r5_DeOLN-2_xh7fez-182" value="" style="html=1;points=[[0,0,0,0,5],[0,1,0,0,-5],[1,0,0,0,5],[1,1,0,0,-5]];perimeter=orthogonalPerimeter;outlineConnect=0;targetShapes=umlLifeline;portConstraint=eastwest;newEdgeStyle={&quot;curved&quot;:0,&quot;rounded&quot;:0};" vertex="1" parent="1">
          <mxGeometry x="1547.26" y="6290" width="10" height="40" as="geometry" />
        </mxCell>
        <mxCell id="Jm0r5_DeOLN-2_xh7fez-183" value="" style="endArrow=none;dashed=1;html=1;rounded=0;exitX=0.001;exitY=0.548;exitDx=0;exitDy=0;exitPerimeter=0;entryX=1;entryY=0.546;entryDx=0;entryDy=0;entryPerimeter=0;" edge="1" parent="1">
          <mxGeometry width="50" height="50" relative="1" as="geometry">
            <mxPoint x="860.75" y="6400.8" as="sourcePoint" />
            <mxPoint x="1610" y="6400" as="targetPoint" />
          </mxGeometry>
        </mxCell>
        <mxCell id="Jm0r5_DeOLN-2_xh7fez-184" value="[Comando incorrecto]" style="text;align=center;fontStyle=0;verticalAlign=middle;spacingLeft=3;spacingRight=3;rotatable=0;points=[[0,0.5],[1,0.5]];portConstraint=eastwest;html=1;fontSize=10;labelBackgroundColor=none;" vertex="1" parent="1">
          <mxGeometry x="920" y="6400" width="109.26" height="20" as="geometry" />
        </mxCell>
        <mxCell id="Jm0r5_DeOLN-2_xh7fez-185" value="" style="html=1;points=[[0,0,0,0,5],[0,1,0,0,-5],[1,0,0,0,5],[1,1,0,0,-5]];perimeter=orthogonalPerimeter;outlineConnect=0;targetShapes=umlLifeline;portConstraint=eastwest;newEdgeStyle={&quot;curved&quot;:0,&quot;rounded&quot;:0};" vertex="1" parent="1">
          <mxGeometry x="1548.26" y="6090" width="10" height="340" as="geometry" />
        </mxCell>
        <mxCell id="Jm0r5_DeOLN-2_xh7fez-187" value="Comando invalido" style="html=1;verticalAlign=bottom;endArrow=open;dashed=1;endSize=8;curved=0;rounded=0;exitX=0;exitY=1;exitDx=0;exitDy=-5;exitPerimeter=0;entryX=1;entryY=0;entryDx=0;entryDy=5;entryPerimeter=0;" edge="1" parent="1" source="Jm0r5_DeOLN-2_xh7fez-185" target="Jm0r5_DeOLN-2_xh7fez-186">
          <mxGeometry relative="1" as="geometry">
            <mxPoint x="1260" y="6420" as="sourcePoint" />
            <mxPoint x="1180" y="6420" as="targetPoint" />
          </mxGeometry>
        </mxCell>
        <mxCell id="Jm0r5_DeOLN-2_xh7fez-189" value="Mostrar mensaje de retroalimentacion&lt;div&gt;y sugerir intentar de nuevo&lt;/div&gt;" style="html=1;verticalAlign=bottom;endArrow=open;dashed=1;endSize=8;curved=0;rounded=0;exitX=0;exitY=1;exitDx=0;exitDy=-5;exitPerimeter=0;entryX=1;entryY=0;entryDx=0;entryDy=5;entryPerimeter=0;" edge="1" parent="1" source="Jm0r5_DeOLN-2_xh7fez-186" target="Jm0r5_DeOLN-2_xh7fez-188">
          <mxGeometry relative="1" as="geometry">
            <mxPoint x="1260" y="6420" as="sourcePoint" />
            <mxPoint x="1180" y="6420" as="targetPoint" />
          </mxGeometry>
        </mxCell>
        <mxCell id="Jm0r5_DeOLN-2_xh7fez-194" value="" style="rounded=0;whiteSpace=wrap;html=1;labelBackgroundColor=none;" vertex="1" parent="1">
          <mxGeometry x="839.74" y="6613" width="800" height="287" as="geometry" />
        </mxCell>
        <mxCell id="Jm0r5_DeOLN-2_xh7fez-195" value="SALIR DE LECCION" style="rounded=0;whiteSpace=wrap;html=1;labelBackgroundColor=none;" vertex="1" parent="1">
          <mxGeometry x="1075.74" y="6570" width="320" height="60" as="geometry" />
        </mxCell>
        <mxCell id="Jm0r5_DeOLN-2_xh7fez-196" value="Usuario" style="shape=umlLifeline;perimeter=lifelinePerimeter;whiteSpace=wrap;html=1;container=1;dropTarget=0;collapsible=0;recursiveResize=0;outlineConnect=0;portConstraint=eastwest;newEdgeStyle={&quot;curved&quot;:0,&quot;rounded&quot;:0};participant=umlActor;size=70;labelBackgroundColor=none;" vertex="1" parent="1">
          <mxGeometry x="884.74" y="6643" width="50" height="257" as="geometry" />
        </mxCell>
        <mxCell id="Jm0r5_DeOLN-2_xh7fez-197" value="" style="html=1;points=[[0,0,0,0,5],[0,1,0,0,-5],[1,0,0,0,5],[1,1,0,0,-5]];perimeter=orthogonalPerimeter;outlineConnect=0;targetShapes=umlLifeline;portConstraint=eastwest;newEdgeStyle={&quot;curved&quot;:0,&quot;rounded&quot;:0};" vertex="1" parent="Jm0r5_DeOLN-2_xh7fez-196">
          <mxGeometry x="20" y="107" width="10" height="143" as="geometry" />
        </mxCell>
        <mxCell id="Jm0r5_DeOLN-2_xh7fez-198" value=":UI" style="shape=umlLifeline;perimeter=lifelinePerimeter;whiteSpace=wrap;html=1;container=1;dropTarget=0;collapsible=0;recursiveResize=0;outlineConnect=0;portConstraint=eastwest;newEdgeStyle={&quot;curved&quot;:0,&quot;rounded&quot;:0};participant=umlBoundary;size=60;align=center;labelBackgroundColor=none;" vertex="1" parent="1">
          <mxGeometry x="1065" y="6646.5" width="80" height="253.5" as="geometry" />
        </mxCell>
        <mxCell id="Jm0r5_DeOLN-2_xh7fez-199" value="" style="html=1;points=[[0,0,0,0,5],[0,1,0,0,-5],[1,0,0,0,5],[1,1,0,0,-5]];perimeter=orthogonalPerimeter;outlineConnect=0;targetShapes=umlLifeline;portConstraint=eastwest;newEdgeStyle={&quot;curved&quot;:0,&quot;rounded&quot;:0};" vertex="1" parent="Jm0r5_DeOLN-2_xh7fez-198">
          <mxGeometry x="35" y="103.5" width="10" height="36.5" as="geometry" />
        </mxCell>
        <mxCell id="Jm0r5_DeOLN-2_xh7fez-200" value="" style="html=1;points=[[0,0,0,0,5],[0,1,0,0,-5],[1,0,0,0,5],[1,1,0,0,-5]];perimeter=orthogonalPerimeter;outlineConnect=0;targetShapes=umlLifeline;portConstraint=eastwest;newEdgeStyle={&quot;curved&quot;:0,&quot;rounded&quot;:0};" vertex="1" parent="Jm0r5_DeOLN-2_xh7fez-198">
          <mxGeometry x="35" y="203.5" width="10" height="36.5" as="geometry" />
        </mxCell>
        <mxCell id="Jm0r5_DeOLN-2_xh7fez-201" value="" style="html=1;points=[[0,0,0,0,5],[0,1,0,0,-5],[1,0,0,0,5],[1,1,0,0,-5]];perimeter=orthogonalPerimeter;outlineConnect=0;targetShapes=umlLifeline;portConstraint=eastwest;newEdgeStyle={&quot;curved&quot;:0,&quot;rounded&quot;:0};" vertex="1" parent="Jm0r5_DeOLN-2_xh7fez-198">
          <mxGeometry x="35" y="103.5" width="10" height="136.5" as="geometry" />
        </mxCell>
        <mxCell id="Jm0r5_DeOLN-2_xh7fez-202" value=":AppServer" style="shape=umlLifeline;perimeter=lifelinePerimeter;whiteSpace=wrap;html=1;container=1;dropTarget=0;collapsible=0;recursiveResize=0;outlineConnect=0;portConstraint=eastwest;newEdgeStyle={&quot;curved&quot;:0,&quot;rounded&quot;:0};labelBackgroundColor=none;" vertex="1" parent="1">
          <mxGeometry x="1290.0000000000002" y="6650" width="100" height="250" as="geometry" />
        </mxCell>
        <mxCell id="Jm0r5_DeOLN-2_xh7fez-203" value="" style="html=1;points=[[0,0,0,0,5],[0,1,0,0,-5],[1,0,0,0,5],[1,1,0,0,-5]];perimeter=orthogonalPerimeter;outlineConnect=0;targetShapes=umlLifeline;portConstraint=eastwest;newEdgeStyle={&quot;curved&quot;:0,&quot;rounded&quot;:0};" vertex="1" parent="Jm0r5_DeOLN-2_xh7fez-202">
          <mxGeometry x="45" y="126.5" width="10" height="43.5" as="geometry" />
        </mxCell>
        <mxCell id="Jm0r5_DeOLN-2_xh7fez-204" value="" style="html=1;points=[[0,0,0,0,5],[0,1,0,0,-5],[1,0,0,0,5],[1,1,0,0,-5]];perimeter=orthogonalPerimeter;outlineConnect=0;targetShapes=umlLifeline;portConstraint=eastwest;newEdgeStyle={&quot;curved&quot;:0,&quot;rounded&quot;:0};" vertex="1" parent="Jm0r5_DeOLN-2_xh7fez-202">
          <mxGeometry x="45" y="180" width="10" height="30" as="geometry" />
        </mxCell>
        <mxCell id="Jm0r5_DeOLN-2_xh7fez-205" value="" style="html=1;points=[[0,0,0,0,5],[0,1,0,0,-5],[1,0,0,0,5],[1,1,0,0,-5]];perimeter=orthogonalPerimeter;outlineConnect=0;targetShapes=umlLifeline;portConstraint=eastwest;newEdgeStyle={&quot;curved&quot;:0,&quot;rounded&quot;:0};" vertex="1" parent="Jm0r5_DeOLN-2_xh7fez-202">
          <mxGeometry x="45" y="126.5" width="10" height="93.5" as="geometry" />
        </mxCell>
        <mxCell id="Jm0r5_DeOLN-2_xh7fez-206" value="BD:LinuxLearn" style="shape=umlLifeline;perimeter=lifelinePerimeter;whiteSpace=wrap;html=1;container=1;dropTarget=0;collapsible=0;recursiveResize=0;outlineConnect=0;portConstraint=eastwest;newEdgeStyle={&quot;curved&quot;:0,&quot;rounded&quot;:0};participant=umlEntity;size=60;labelBackgroundColor=none;" vertex="1" parent="1">
          <mxGeometry x="1516.0000000000002" y="6630" width="80" height="270" as="geometry" />
        </mxCell>
        <mxCell id="Jm0r5_DeOLN-2_xh7fez-207" value="" style="html=1;points=[[0,0,0,0,5],[0,1,0,0,-5],[1,0,0,0,5],[1,1,0,0,-5]];perimeter=orthogonalPerimeter;outlineConnect=0;targetShapes=umlLifeline;portConstraint=eastwest;newEdgeStyle={&quot;curved&quot;:0,&quot;rounded&quot;:0};" vertex="1" parent="Jm0r5_DeOLN-2_xh7fez-206">
          <mxGeometry x="35" y="180" width="10" height="30" as="geometry" />
        </mxCell>
        <mxCell id="Jm0r5_DeOLN-2_xh7fez-208" value="Click en salir" style="html=1;verticalAlign=bottom;endArrow=block;curved=0;rounded=0;exitX=1;exitY=0;exitDx=0;exitDy=5;exitPerimeter=0;entryX=0;entryY=0;entryDx=0;entryDy=5;entryPerimeter=0;" edge="1" parent="1" source="Jm0r5_DeOLN-2_xh7fez-197" target="Jm0r5_DeOLN-2_xh7fez-199">
          <mxGeometry width="80" relative="1" as="geometry">
            <mxPoint x="909.5635294117646" y="6780" as="sourcePoint" />
            <mxPoint x="1105" y="6780" as="targetPoint" />
          </mxGeometry>
        </mxCell>
        <mxCell id="Jm0r5_DeOLN-2_xh7fez-209" value="Guardar progreso" style="html=1;verticalAlign=bottom;endArrow=block;curved=0;rounded=0;exitX=1;exitY=1;exitDx=0;exitDy=-5;exitPerimeter=0;entryX=0;entryY=0;entryDx=0;entryDy=5;entryPerimeter=0;" edge="1" parent="1" source="Jm0r5_DeOLN-2_xh7fez-199" target="Jm0r5_DeOLN-2_xh7fez-203">
          <mxGeometry width="80" relative="1" as="geometry">
            <mxPoint x="1290.0000000000002" y="6930" as="sourcePoint" />
            <mxPoint x="1370.0000000000002" y="6930" as="targetPoint" />
          </mxGeometry>
        </mxCell>
        <mxCell id="Jm0r5_DeOLN-2_xh7fez-210" value="Guardar rprogreso" style="html=1;verticalAlign=bottom;endArrow=block;curved=0;rounded=0;exitX=1;exitY=1;exitDx=0;exitDy=-5;exitPerimeter=0;" edge="1" parent="1" source="Jm0r5_DeOLN-2_xh7fez-203" target="Jm0r5_DeOLN-2_xh7fez-207">
          <mxGeometry width="80" relative="1" as="geometry">
            <mxPoint x="1290.0000000000002" y="6930" as="sourcePoint" />
            <mxPoint x="1370.0000000000002" y="6930" as="targetPoint" />
          </mxGeometry>
        </mxCell>
        <mxCell id="Jm0r5_DeOLN-2_xh7fez-212" value="Mostrar home" style="html=1;verticalAlign=bottom;endArrow=open;dashed=1;endSize=8;curved=0;rounded=0;entryX=1;entryY=0;entryDx=0;entryDy=5;entryPerimeter=0;exitX=0;exitY=1;exitDx=0;exitDy=-5;exitPerimeter=0;" edge="1" parent="1" source="Jm0r5_DeOLN-2_xh7fez-204" target="Jm0r5_DeOLN-2_xh7fez-200">
          <mxGeometry relative="1" as="geometry">
            <mxPoint x="1370.0000000000002" y="6930" as="sourcePoint" />
            <mxPoint x="1290.0000000000002" y="6930" as="targetPoint" />
          </mxGeometry>
        </mxCell>
        <mxCell id="Jm0r5_DeOLN-2_xh7fez-214" value="" style="rounded=0;whiteSpace=wrap;html=1;labelBackgroundColor=none;" vertex="1" parent="1">
          <mxGeometry x="845" y="7163" width="800" height="287" as="geometry" />
        </mxCell>
        <mxCell id="Jm0r5_DeOLN-2_xh7fez-215" value="RECIBIR INSIGNIA" style="rounded=0;whiteSpace=wrap;html=1;labelBackgroundColor=none;" vertex="1" parent="1">
          <mxGeometry x="1081" y="7120" width="320" height="60" as="geometry" />
        </mxCell>
        <mxCell id="Jm0r5_DeOLN-2_xh7fez-216" value="Usuario" style="shape=umlLifeline;perimeter=lifelinePerimeter;whiteSpace=wrap;html=1;container=1;dropTarget=0;collapsible=0;recursiveResize=0;outlineConnect=0;portConstraint=eastwest;newEdgeStyle={&quot;curved&quot;:0,&quot;rounded&quot;:0};participant=umlActor;size=70;labelBackgroundColor=none;" vertex="1" parent="1">
          <mxGeometry x="890" y="7193" width="50" height="257" as="geometry" />
        </mxCell>
        <mxCell id="Jm0r5_DeOLN-2_xh7fez-218" value=":UI" style="shape=umlLifeline;perimeter=lifelinePerimeter;whiteSpace=wrap;html=1;container=1;dropTarget=0;collapsible=0;recursiveResize=0;outlineConnect=0;portConstraint=eastwest;newEdgeStyle={&quot;curved&quot;:0,&quot;rounded&quot;:0};participant=umlBoundary;size=60;align=center;labelBackgroundColor=none;" vertex="1" parent="1">
          <mxGeometry x="1070.26" y="7196.5" width="80" height="253.5" as="geometry" />
        </mxCell>
        <mxCell id="Jm0r5_DeOLN-2_xh7fez-222" value=":AppServer" style="shape=umlLifeline;perimeter=lifelinePerimeter;whiteSpace=wrap;html=1;container=1;dropTarget=0;collapsible=0;recursiveResize=0;outlineConnect=0;portConstraint=eastwest;newEdgeStyle={&quot;curved&quot;:0,&quot;rounded&quot;:0};labelBackgroundColor=none;" vertex="1" parent="1">
          <mxGeometry x="1295.2600000000002" y="7200" width="100" height="250" as="geometry" />
        </mxCell>
        <mxCell id="Jm0r5_DeOLN-2_xh7fez-226" value="BD:LinuxLearn" style="shape=umlLifeline;perimeter=lifelinePerimeter;whiteSpace=wrap;html=1;container=1;dropTarget=0;collapsible=0;recursiveResize=0;outlineConnect=0;portConstraint=eastwest;newEdgeStyle={&quot;curved&quot;:0,&quot;rounded&quot;:0};participant=umlEntity;size=60;labelBackgroundColor=none;" vertex="1" parent="1">
          <mxGeometry x="1521.2600000000002" y="7180" width="80" height="270" as="geometry" />
        </mxCell>
      </root>
    </mxGraphModel>
  </diagram>
</mxfile>
